# Blender v2.79 (sub 0) OBJ File: ''
# www.blender.org
mtllib door.mtl
o Cube.099_Cube.127_glosi
v -0.002096 -0.058474 0.014947
v -0.002096 -0.017914 0.014947
v -0.002096 -0.016140 0.015422
v -0.002096 -0.014841 0.016721
v -0.002096 -0.014366 0.018495
v -0.002096 -0.014366 0.038237
v -0.002096 -0.014841 0.040011
v -0.002096 -0.016140 0.041310
v -0.002096 -0.017914 0.041785
v -0.002096 -0.058474 0.041785
v -0.002096 -0.060249 0.041310
v -0.002096 -0.061548 0.040011
v -0.002096 -0.062023 0.038236
v -0.002096 -0.062023 0.018495
v -0.002096 -0.061548 0.016721
v -0.002096 -0.060249 0.015422
v -0.002505 -0.058474 0.014947
v -0.002505 -0.060249 0.015422
v -0.002505 -0.061548 0.016721
v -0.002505 -0.062023 0.018495
v -0.002505 -0.062023 0.038236
v -0.002505 -0.061548 0.040011
v -0.002505 -0.060249 0.041310
v -0.002505 -0.058474 0.041785
v -0.002505 -0.017914 0.041785
v -0.002505 -0.016140 0.041310
v -0.002505 -0.014841 0.040011
v -0.002505 -0.014366 0.038237
v -0.002505 -0.014366 0.018495
v -0.002505 -0.014841 0.016721
v -0.002505 -0.016140 0.015422
v -0.002505 -0.017914 0.014947
vt 0.425439 0.835661
vt 0.425439 0.961095
vt 0.428081 0.966583
vt 0.435298 0.970600
vt 0.445157 0.972070
vt 0.554843 0.972070
vt 0.564702 0.970600
vt 0.571919 0.966583
vt 0.574561 0.961095
vt 0.574561 0.835661
vt 0.571919 0.830173
vt 0.564702 0.826156
vt 0.554843 0.824686
vt 0.445157 0.824686
vt 0.435298 0.826156
vt 0.428081 0.830173
vt 0.425439 0.835661
vt 0.428081 0.830173
vt 0.435298 0.826156
vt 0.445157 0.824686
vt 0.554843 0.824686
vt 0.564702 0.826156
vt 0.571919 0.830173
vt 0.574561 0.835661
vt 0.574561 0.961095
vt 0.571919 0.966583
vt 0.564702 0.970600
vt 0.554843 0.972070
vt 0.445157 0.972070
vt 0.435298 0.970600
vt 0.428081 0.966583
vt 0.425439 0.961095
vn 1.0000 -0.0000 0.0000
vn -1.0000 -0.0000 -0.0000
usemtl glosi
s 1
f 1/1/1 2/2/1 3/3/1 4/4/1 5/5/1 6/6/1 7/7/1 8/8/1 9/9/1 10/10/1 11/11/1 12/12/1 13/13/1 14/14/1 15/15/1 16/16/1
f 17/17/2 18/18/2 19/19/2 20/20/2 21/21/2 22/22/2 23/23/2 24/24/2 25/25/2 26/26/2 27/27/2 28/28/2 29/29/2 30/30/2 31/31/2 32/32/2
o Cube.099_Cube.127_basic_2
v -0.000096 -0.004073 0.002303
v -0.002925 -0.004073 0.003475
v -0.002406 -0.001763 0.003994
v -0.000096 -0.001244 0.003475
v -0.004096 -0.004073 0.006303
v -0.002925 -0.001244 0.006303
v -0.000096 -0.000073 0.006303
v -0.004096 -0.004073 0.050429
v -0.002925 -0.004073 0.053257
v -0.002406 -0.001763 0.052738
v -0.002925 -0.001244 0.050429
v -0.000096 -0.004073 0.054429
v -0.000096 -0.001244 0.053257
v -0.000096 -0.000073 0.050429
v -0.004096 -0.004073 0.010091
v -0.002925 -0.001244 0.010091
v -0.000096 -0.000073 0.010091
v -0.000096 -0.072316 0.054429
v -0.002925 -0.072316 0.053257
v -0.004096 -0.072316 0.050429
v -0.002925 -0.072316 0.003475
v -0.004096 -0.072316 0.006303
v -0.000096 -0.072316 0.002303
v -0.004096 -0.014841 0.016721
v -0.004096 -0.016140 0.015422
v -0.002505 -0.016140 0.015422
v -0.002505 -0.014841 0.016721
v -0.004096 -0.017914 0.041785
v -0.004096 -0.004073 0.046440
v -0.004096 -0.016140 0.041310
v -0.004096 -0.004073 0.042311
v -0.004096 -0.014841 0.040011
v -0.004096 -0.004073 0.038237
v -0.004096 -0.014366 0.038237
v -0.004096 -0.004073 0.018495
v -0.004096 -0.014366 0.018495
v -0.004096 -0.004073 0.014311
v -0.004096 -0.017914 0.014947
v -0.004096 -0.058474 0.014947
v -0.004096 -0.058474 0.041785
v -0.004096 -0.060249 0.015422
v -0.004096 -0.072316 0.009949
v -0.004096 -0.072316 0.013996
v -0.004096 -0.061548 0.016721
v -0.002925 -0.001244 0.046437
v -0.000096 -0.000073 0.046418
v -0.002925 -0.001244 0.042311
v -0.000096 -0.000073 0.042311
v -0.002925 -0.001244 0.038237
v -0.000096 -0.000073 0.038237
v -0.002925 -0.001244 0.018495
v -0.000096 -0.000073 0.018495
v -0.002925 -0.001244 0.014383
v -0.000096 -0.000073 0.014336
v -0.004096 -0.072316 0.038216
v -0.004096 -0.072316 0.042389
v -0.004096 -0.061548 0.040011
v -0.004096 -0.062023 0.038236
v -0.004096 -0.072316 0.046224
v -0.004096 -0.060249 0.041310
v -0.004096 -0.072316 0.018495
v -0.004096 -0.062023 0.018495
v 0.000624 -0.004386 0.004142
v 0.000612 -0.002567 0.004797
v -0.001251 -0.002918 0.005148
v -0.001532 -0.004418 0.004868
v -0.002162 -0.004431 0.006662
v -0.001532 -0.002637 0.006648
v 0.000624 -0.001912 0.006617
v -0.002162 -0.004431 0.050070
v -0.001532 -0.002637 0.050083
v -0.001251 -0.002918 0.051583
v -0.001532 -0.004418 0.051864
v 0.000624 -0.004386 0.052589
v 0.000612 -0.002567 0.051935
v 0.000624 -0.001912 0.050115
v -0.001511 -0.002658 0.010091
v -0.002135 -0.004463 0.010091
v 0.000669 -0.001920 0.010091
v 0.000669 -0.072316 0.052581
v -0.001511 -0.072316 0.051843
v -0.002135 -0.072316 0.050038
v -0.002135 -0.072316 0.006693
v -0.001511 -0.072316 0.004889
v 0.000669 -0.072316 0.004151
v -0.002096 -0.017914 0.041785
v -0.002096 -0.016140 0.041310
v -0.002135 -0.004463 0.046440
v -0.002096 -0.014841 0.040011
v -0.002135 -0.004463 0.042311
v -0.002096 -0.014366 0.038237
v -0.002135 -0.004463 0.038237
v -0.002096 -0.014366 0.018495
v -0.002135 -0.004463 0.018495
v -0.002096 -0.014841 0.016721
v -0.002135 -0.004463 0.014311
v -0.002096 -0.016140 0.015422
v -0.002096 -0.017914 0.014947
v -0.002096 -0.058474 0.014947
v -0.002096 -0.058474 0.041785
v -0.002096 -0.060249 0.015422
v -0.002096 -0.061548 0.016721
v -0.002096 -0.072316 0.013996
v -0.002096 -0.072316 0.009949
v -0.001511 -0.002658 0.046437
v 0.000669 -0.001920 0.046418
v -0.001511 -0.002658 0.042311
v 0.000669 -0.001920 0.042311
v -0.001511 -0.002658 0.038237
v 0.000669 -0.001920 0.038237
v -0.001511 -0.002658 0.018495
v 0.000669 -0.001920 0.018495
v -0.001511 -0.002658 0.014383
v 0.000669 -0.001920 0.014336
v -0.002096 -0.072316 0.038216
v -0.002096 -0.062023 0.038236
v -0.002096 -0.061548 0.040011
v -0.002096 -0.072316 0.042389
v -0.002096 -0.060249 0.041310
v -0.002096 -0.072316 0.046224
v -0.002096 -0.062023 0.018495
v -0.002096 -0.072316 0.018495
v -0.002505 -0.058474 0.041785
v -0.002505 -0.060249 0.041310
v -0.002505 -0.058474 0.014947
v -0.002505 -0.017914 0.014947
v -0.002505 -0.017914 0.041785
v -0.002505 -0.060249 0.015422
v -0.002505 -0.016140 0.041310
v -0.002505 -0.061548 0.016721
v -0.002505 -0.014841 0.040011
v -0.002505 -0.062023 0.018495
v -0.002505 -0.014366 0.038237
v -0.002505 -0.062023 0.038236
v -0.002505 -0.014366 0.018495
v -0.002505 -0.061548 0.040011
v -0.005977 -0.068233 0.038178
v -0.007511 -0.068233 0.037524
v -0.008004 -0.068233 0.036052
v -0.005977 -0.068233 0.036052
v -0.007511 -0.066106 0.037524
v -0.008004 -0.066106 0.036052
v -0.005977 -0.066106 0.038178
v -0.003950 -0.066106 0.038178
v -0.003950 -0.066106 0.036052
v -0.005977 -0.066106 0.036052
v -0.003950 -0.068233 0.038178
v -0.003950 -0.068233 0.036052
v -0.008004 -0.068233 0.020663
v -0.005977 -0.068233 0.020663
v -0.007511 -0.068233 0.019191
v -0.005977 -0.068233 0.018537
v -0.008004 -0.066106 0.020663
v -0.007511 -0.066106 0.019191
v -0.005977 -0.066106 0.020663
v -0.003950 -0.066106 0.020663
v -0.003950 -0.066106 0.018537
v -0.005977 -0.066106 0.018537
v -0.003950 -0.068233 0.020663
v -0.003950 -0.068233 0.018537
vt 0.135534 0.733399
vt 0.135534 0.750000
vt 0.129452 0.750000
vt 0.125000 0.733399
vt 0.394184 0.989466
vt 0.394185 1.000000
vt 0.383108 1.000000
vt 0.375000 0.989466
vt 0.394185 0.016601
vt 0.375000 0.016601
vt 0.375000 0.007017
vt 0.394184 0.000000
vt 0.605815 0.989466
vt 0.625000 0.989466
vt 0.625000 0.995548
vt 0.605815 1.000000
vt 0.864466 0.733399
vt 0.875000 0.733399
vt 0.875000 0.742983
vt 0.864466 0.750000
vt 0.605815 0.016601
vt 0.605815 0.000000
vt 0.616892 0.000000
vt 0.625000 0.016601
vt 0.411108 0.989466
vt 0.412288 1.000000
vt 0.412323 0.000000
vt 0.412004 0.016601
vt 0.682290 0.733399
vt 0.682290 0.750000
vt 0.625000 0.807290
vt 0.605815 0.807290
vt 0.375000 0.807290
vt 0.394184 0.807290
vt 0.317710 0.733399
vt 0.317710 0.750000
vt 0.435298 0.970600
vt 0.428081 0.966583
vt 0.428081 0.966583
vt 0.435298 0.970600
vt 0.574561 0.961095
vt 0.574561 0.961095
vt 0.568710 0.970931
vt 0.571919 0.966583
vt 0.557954 0.973538
vt 0.564702 0.970600
vt 0.554843 0.972070
vt 0.554843 0.972070
vt 0.445157 0.972070
vt 0.445157 0.972070
vt 0.441962 0.973722
vt 0.430775 0.970256
vt 0.425439 0.961095
vt 0.425439 0.961095
vt 0.425439 0.835661
vt 0.425439 0.835661
vt 0.574561 0.835661
vt 0.574561 0.835661
vt 0.428081 0.830173
vt 0.437780 0.836119
vt 0.451078 0.835806
vt 0.435298 0.826156
vt 0.587028 1.000000
vt 0.587456 0.989466
vt 0.587251 0.016601
vt 0.586996 0.000000
vt 0.571719 1.000000
vt 0.571684 0.989466
vt 0.571211 0.016601
vt 0.571627 0.000000
vt 0.568040 1.000000
vt 0.567790 0.989466
vt 0.566606 0.016601
vt 0.568040 0.000000
vt 0.432535 1.000000
vt 0.432210 0.989466
vt 0.432805 0.016601
vt 0.432535 0.000000
vt 0.428660 1.000000
vt 0.428462 0.989466
vt 0.428668 0.016601
vt 0.428698 0.000000
vt 0.533287 0.835661
vt 0.548159 0.836041
vt 0.564702 0.826156
vt 0.554843 0.824686
vt 0.560582 0.835371
vt 0.571919 0.830173
vt 0.465723 0.835395
vt 0.445157 0.824686
vt 0.135534 0.733399
vt 0.125000 0.733399
vt 0.129452 0.750000
vt 0.135534 0.750000
vt 0.394184 0.989466
vt 0.375000 0.989466
vt 0.383108 1.000000
vt 0.394185 1.000000
vt 0.394185 0.016601
vt 0.394184 0.000000
vt 0.375000 0.007017
vt 0.375000 0.016601
vt 0.605815 0.989466
vt 0.605815 1.000000
vt 0.625000 0.995548
vt 0.625000 0.989466
vt 0.864466 0.733399
vt 0.864466 0.750000
vt 0.875000 0.742983
vt 0.875000 0.733399
vt 0.605815 0.016601
vt 0.625000 0.016601
vt 0.616892 0.000000
vt 0.605815 0.000000
vt 0.412288 1.000000
vt 0.411108 0.989466
vt 0.412004 0.016601
vt 0.412323 0.000000
vt 0.682290 0.733399
vt 0.682290 0.750000
vt 0.625000 0.807290
vt 0.605815 0.807290
vt 0.394184 0.807290
vt 0.375000 0.807290
vt 0.317710 0.750000
vt 0.317710 0.733399
vt 0.574561 0.961095
vt 0.571919 0.966583
vt 0.568710 0.970931
vt 0.574561 0.961095
vt 0.564702 0.970600
vt 0.557954 0.973538
vt 0.554843 0.972070
vt 0.554843 0.972070
vt 0.445157 0.972070
vt 0.445157 0.972070
vt 0.435298 0.970600
vt 0.441962 0.973722
vt 0.428081 0.966583
vt 0.430775 0.970256
vt 0.425439 0.961095
vt 0.425439 0.835661
vt 0.425439 0.835661
vt 0.425439 0.961095
vt 0.574561 0.835661
vt 0.574561 0.835661
vt 0.428081 0.830173
vt 0.435298 0.826156
vt 0.451078 0.835806
vt 0.437780 0.836119
vt 0.587028 1.000000
vt 0.587456 0.989466
vt 0.587251 0.016601
vt 0.586996 0.000000
vt 0.571719 1.000000
vt 0.571684 0.989466
vt 0.571211 0.016601
vt 0.571627 0.000000
vt 0.568040 1.000000
vt 0.567790 0.989466
vt 0.566606 0.016601
vt 0.568040 0.000000
vt 0.432535 1.000000
vt 0.432210 0.989466
vt 0.432805 0.016601
vt 0.432535 0.000000
vt 0.428660 1.000000
vt 0.428462 0.989466
vt 0.428668 0.016601
vt 0.428698 0.000000
vt 0.533287 0.835661
vt 0.554843 0.824686
vt 0.564702 0.826156
vt 0.548159 0.836041
vt 0.571919 0.830173
vt 0.560582 0.835371
vt 0.445157 0.824686
vt 0.465723 0.835395
vt 0.574561 0.835661
vt 0.571919 0.830173
vt 0.425439 0.835661
vt 0.425439 0.961095
vt 0.574561 0.961095
vt 0.428081 0.830173
vt 0.571919 0.966583
vt 0.435298 0.826156
vt 0.564702 0.970600
vt 0.445157 0.824686
vt 0.554843 0.972070
vt 0.554843 0.824686
vt 0.445157 0.972070
vt 0.564702 0.826156
vt 0.375000 0.125000
vt 0.375000 0.250000
vt 0.625000 0.250000
vt 0.625000 0.125000
vt 0.375000 0.500000
vt 0.625000 0.500000
vt 0.375000 0.625000
vt 0.375000 0.750000
vt 0.625000 0.750000
vt 0.625000 0.625000
vt 0.375000 1.000000
vt 0.625000 1.000000
vt 0.125000 0.625000
vt 0.125000 0.750000
vt 0.875000 0.750000
vt 0.875000 0.625000
vt 0.375000 0.250000
vt 0.125000 0.625000
vt 0.125000 0.500000
vt 0.375000 0.000000
vt 0.625000 0.000000
vt 0.375000 0.125000
vt 0.625000 0.250000
vt 0.625000 0.125000
vt 0.375000 0.500000
vt 0.625000 0.500000
vt 0.375000 0.625000
vt 0.375000 0.750000
vt 0.625000 0.750000
vt 0.625000 0.625000
vt 0.375000 1.000000
vt 0.625000 1.000000
vt 0.125000 0.750000
vt 0.875000 0.750000
vt 0.875000 0.625000
vt 0.875000 0.500000
vt 0.375000 0.000000
vt 0.625000 0.000000
vn -0.3251 0.3251 -0.8881
vn -0.8881 0.3249 -0.3250
vn -0.3249 0.8881 -0.3250
vn -0.8881 0.3249 0.3250
vn -0.3251 0.3251 0.8881
vn -0.3249 0.8881 0.3250
vn -0.9240 0.3825 -0.0000
vn -0.9238 0.3829 -0.0000
vn -0.3829 0.9238 -0.0000
vn -0.3825 0.9240 -0.0000
vn -0.3827 0.0000 0.9239
vn -0.9239 0.0000 0.3826
vn -0.9238 -0.0000 -0.3829
vn -0.3827 0.0000 -0.9239
vn 0.0000 -0.7071 0.7071
vn -1.0000 0.0000 -0.0000
vn -0.9238 0.3828 -0.0000
vn -0.9237 0.3831 0.0000
vn -0.3828 0.9238 -0.0000
vn 0.2733 -0.2813 0.9199
vn 0.9201 -0.2768 0.2770
vn 0.2730 -0.9199 0.2815
vn 0.9201 -0.2770 -0.2770
vn 0.2733 -0.2813 -0.9199
vn 0.2732 -0.9199 -0.2815
vn 0.9443 -0.3290 -0.0091
vn 0.9432 -0.3323 -0.0037
vn 0.9432 -0.3323 -0.0043
vn 0.3196 -0.9475 -0.0070
vn 0.3202 -0.9474 -0.0035
vn 0.3197 0.0004 -0.9475
vn 0.9443 0.0005 -0.3290
vn 0.9443 0.0005 0.3291
vn 0.3199 0.0004 0.9475
vn 1.0000 0.0003 0.0065
vn 1.0000 0.0027 0.0016
vn 1.0000 0.0027 0.0015
vn 1.0000 0.0004 0.0066
vn 1.0000 0.0035 0.0006
vn 1.0000 0.0039 0.0002
vn 1.0000 0.0039 -0.0002
vn 1.0000 0.0035 -0.0006
vn 1.0000 0.0027 -0.0016
vn 1.0000 0.0027 -0.0015
vn 1.0000 0.0002 -0.0069
vn 1.0000 0.0027 -0.0083
vn 1.0000 0.0007 -0.0066
vn 1.0000 0.0003 -0.0068
vn 1.0000 0.0019 0.0075
vn 1.0000 0.0007 0.0065
vn 1.0000 0.0005 -0.0013
vn 1.0000 -0.0000 0.0000
vn 1.0000 0.0004 -0.0010
vn 0.9447 -0.3279 0.0043
vn 0.9443 -0.3290 0.0086
vn 0.9433 -0.3320 0.0039
vn 0.3202 -0.9474 0.0033
vn 0.3202 -0.9473 0.0071
vn 0.9451 -0.3267 0.0000
vn 0.3207 -0.9472 0.0000
vn 1.0000 0.0004 0.0013
vn 1.0000 0.0002 0.0009
vn 0.9275 0.1388 -0.3471
vn 0.9275 0.3471 -0.1388
vn 0.9273 0.1389 0.3476
vn 0.9275 0.3471 0.1388
vn 0.9277 0.3733 -0.0053
vn 0.9258 0.3780 -0.0027
vn 0.9276 0.0003 0.3735
vn 0.9276 0.0003 -0.3736
vn 0.0000 -1.0000 -0.0000
vn 0.9258 0.3780 0.0025
vn 0.9277 0.3733 0.0050
vn 0.9239 0.3827 0.0000
vn 0.0000 0.2585 -0.9660
vn 0.0000 0.0000 1.0000
vn 0.0000 -0.2586 0.9660
vn 0.0000 0.0000 -1.0000
vn 0.0000 0.2585 0.9660
vn 0.0000 -0.2586 -0.9660
vn 0.0000 0.7071 0.7071
vn 0.0000 -0.7071 -0.7071
vn 0.0000 0.9660 0.2586
vn 0.0000 -0.9660 -0.2586
vn 0.0000 1.0000 -0.0000
vn 0.0000 0.9660 -0.2585
vn 0.0000 -0.9660 0.2586
vn 0.0000 0.7071 -0.7071
vn -0.9482 0.0000 0.3176
vn -0.3922 0.0000 0.9199
vn -0.9482 0.0000 -0.3176
vn -0.3922 0.0000 -0.9199
usemtl basic_2
s 1
f 33/33/3 34/34/3 35/35/3 36/36/3
f 37/37/4 38/38/4 35/39/4 34/40/4
f 39/41/5 36/42/5 35/43/5 38/44/5
f 40/45/6 41/46/6 42/47/6 43/48/6
f 44/49/7 45/50/7 42/51/7 41/52/7
f 46/53/8 43/54/8 42/55/8 45/56/8
f 37/37/9 47/57/10 48/58/10 38/38/9
f 38/44/11 48/59/12 49/60/12 39/41/11
f 50/61/13 44/49/13 41/52/13 51/62/13
f 51/63/14 41/46/14 40/45/14 52/64/14
f 34/40/15 53/65/15 54/66/15 37/37/15
f 33/33/16 55/67/16 53/68/16 34/34/16
f 56/69/17 57/70/17 58/71/17 59/72/17
f 60/73/18 40/74/18 61/75/18 62/76/18
f 62/76/18 61/75/18 63/77/18 64/78/18
f 64/78/18 63/77/18 65/79/18 66/80/18
f 66/80/18 65/79/18 67/81/18 68/82/18
f 68/82/18 67/81/18 69/83/18 56/69/18
f 56/69/18 69/83/18 47/84/18 57/70/18
f 70/85/18 37/86/18 54/87/18 71/88/18
f 57/70/18 47/84/18 37/86/18 70/85/18
f 72/89/18 52/90/18 40/74/18 60/73/18
f 73/91/18 74/92/18 75/93/18 76/94/18
f 77/95/19 61/96/19 40/45/10 43/48/10
f 78/97/12 77/98/12 43/54/11 46/53/11
f 79/99/20 63/100/20 61/96/19 77/95/19
f 80/101/11 79/102/11 77/98/12 78/97/12
f 81/103/10 65/104/10 63/100/20 79/99/20
f 82/105/21 81/106/21 79/102/11 80/101/11
f 83/107/20 67/108/20 65/104/10 81/103/10
f 84/109/12 83/110/12 81/106/21 82/105/21
f 85/111/19 69/112/9 67/108/20 83/107/20
f 86/113/12 85/114/11 83/110/12 84/109/12
f 48/58/10 47/57/10 69/112/9 85/111/19
f 49/60/12 48/59/12 85/114/11 86/113/12
f 87/115/18 88/116/18 89/117/18 90/118/18
f 88/116/18 91/119/18 92/120/18 89/117/18
f 91/119/18 52/90/18 72/89/18 92/120/18
f 74/92/18 73/91/18 71/88/18 54/87/18
f 75/93/18 93/121/18 94/122/18 76/94/18
f 93/121/18 87/115/18 90/118/18 94/122/18
f 95/123/22 96/124/22 97/125/22 98/126/22
f 99/127/23 98/128/23 97/129/23 100/130/23
f 101/131/24 100/132/24 97/133/24 96/134/24
f 102/135/25 103/136/25 104/137/25 105/138/25
f 106/139/26 105/140/26 104/141/26 107/142/26
f 108/143/27 107/144/27 104/145/27 103/146/27
f 99/127/28 100/130/28 109/147/29 110/148/30
f 100/132/31 101/131/31 111/149/32 109/150/32
f 112/151/33 113/152/33 105/140/33 106/139/33
f 113/153/34 114/154/34 102/135/34 105/138/34
f 98/128/35 99/127/35 115/155/35 116/156/35
f 95/123/36 98/126/36 116/157/36 117/158/36
f 118/159/37 119/160/38 120/161/39 102/162/40
f 119/160/38 121/163/41 122/164/41 120/161/39
f 121/163/41 123/165/42 124/166/42 122/164/41
f 123/165/42 125/167/43 126/168/43 124/166/42
f 125/167/43 127/169/44 128/170/44 126/168/43
f 127/169/44 129/171/45 110/172/46 128/170/44
f 130/173/47 131/174/48 115/175/49 99/176/50
f 129/171/45 130/173/47 99/176/50 110/172/46
f 132/177/51 118/159/37 102/162/40 114/178/52
f 133/179/53 134/180/54 135/181/54 136/182/55
f 137/183/56 103/136/57 102/135/57 120/184/58
f 138/185/59 108/143/60 103/146/60 137/186/59
f 139/187/61 137/183/56 120/184/58 122/188/61
f 140/189/62 138/185/59 137/186/59 139/190/62
f 141/191/61 139/187/61 122/188/61 124/192/61
f 142/193/62 140/189/62 139/190/62 141/194/62
f 143/195/61 141/191/61 124/192/61 126/196/61
f 144/197/62 142/193/62 141/194/62 143/198/62
f 145/199/61 143/195/61 126/196/61 128/200/61
f 146/201/62 144/197/62 143/198/62 145/202/62
f 109/147/29 145/199/61 128/200/61 110/148/30
f 111/149/32 146/201/62 145/202/62 109/150/32
f 147/203/54 148/204/54 149/205/54 150/206/54
f 150/206/54 149/205/54 151/207/63 152/208/64
f 152/208/64 151/207/63 132/177/51 114/178/52
f 136/182/55 115/175/49 131/174/48 133/179/53
f 135/181/54 134/180/54 153/209/54 154/210/54
f 154/210/54 153/209/54 148/204/54 147/203/54
f 33/33/65 36/36/65 96/124/65 95/123/65
f 36/42/66 39/41/66 101/131/66 96/134/66
f 45/50/67 44/49/67 106/139/67 107/142/67
f 46/53/68 45/56/68 107/144/68 108/143/68
f 39/41/69 49/60/70 111/149/70 101/131/69
f 44/49/71 50/61/71 112/151/71 106/139/71
f 55/67/72 33/33/72 95/123/72 117/158/72
f 51/63/73 52/64/73 114/154/73 113/153/73
f 50/61/73 51/62/73 113/152/73 112/151/73
f 54/66/73 53/65/73 116/156/73 115/155/73
f 53/68/73 55/67/73 117/158/73 116/157/73
f 78/97/74 46/53/75 108/143/75 138/185/74
f 80/101/76 78/97/74 138/185/74 140/189/76
f 82/105/76 80/101/76 140/189/76 142/193/76
f 84/109/76 82/105/76 142/193/76 144/197/76
f 86/113/76 84/109/76 144/197/76 146/201/76
f 49/60/70 86/113/76 146/201/76 111/149/70
f 52/90/73 91/119/73 152/208/73 114/178/73
f 87/115/73 93/121/73 154/210/73 147/203/73
f 88/116/73 87/115/73 147/203/73 150/206/73
f 91/119/73 88/116/73 150/206/73 152/208/73
f 74/92/73 54/87/73 115/175/73 136/182/73
f 75/93/73 74/92/73 136/182/73 135/181/73
f 93/121/73 75/93/73 135/181/73 154/210/73
f 92/120/77 72/89/77 155/211/77 156/212/77
f 70/85/78 71/88/78 157/213/78 158/214/78
f 57/70/79 70/85/79 158/214/79 58/71/79
f 72/89/80 60/73/80 159/215/80 155/211/80
f 71/88/81 73/91/81 160/216/81 157/213/81
f 60/73/82 62/76/82 161/217/82 159/215/82
f 73/91/83 76/94/83 162/218/83 160/216/83
f 62/76/84 64/78/84 163/219/84 161/217/84
f 76/94/85 94/122/85 164/220/85 162/218/85
f 64/78/86 66/80/86 165/221/86 163/219/86
f 94/122/87 90/118/87 166/222/87 164/220/87
f 66/80/73 68/82/73 167/223/73 165/221/73
f 90/118/88 89/117/88 168/224/88 166/222/88
f 68/82/89 56/69/89 59/72/89 167/223/89
f 89/117/90 92/120/90 156/212/90 168/224/90
f 169/225/73 170/226/73 171/227/73 172/228/73
f 170/226/91 173/229/91 174/230/91 171/227/91
f 175/231/87 176/232/87 177/233/87 178/234/87
f 176/232/54 179/235/54 180/236/54 177/233/54
f 169/237/78 179/238/78 176/232/78 175/231/78
f 178/234/80 177/233/80 180/239/80 172/240/80
f 172/240/73 171/227/73 181/241/73 182/242/73
f 170/243/92 169/237/92 175/231/92 173/229/92
f 173/229/87 175/231/87 178/234/87 174/230/87
f 179/244/73 169/225/73 172/228/73 180/245/73
f 182/246/73 181/241/73 183/247/73 184/248/73
f 181/241/93 185/249/93 186/250/93 183/247/93
f 187/251/87 188/252/87 189/253/87 190/254/87
f 188/252/54 191/255/54 192/256/54 189/253/54
f 182/242/78 191/257/78 188/252/78 187/251/78
f 190/254/80 189/253/80 192/258/80 184/259/80
f 186/250/94 190/254/94 184/259/94 183/260/94
f 172/240/54 182/242/54 187/251/54 178/234/54
f 185/249/87 187/251/87 190/254/87 186/250/87
f 191/261/73 182/246/73 184/248/73 192/262/73
f 171/227/18 174/230/18 185/249/18 181/241/18
f 174/230/87 178/234/87 187/251/87 185/249/87
