# Blender 3.4.1
# www.blender.org
mtllib corpus.mtl
o Cube.145_Cube.173_basic_2
v 0.086184 -0.115147 0.004751
v 0.086184 -0.115147 0.140580
v -0.000243 -0.115147 0.140580
v -0.000243 -0.115147 0.004751
v -0.000243 0.000039 0.004751
v -0.000244 0.000039 0.140580
v 0.086184 0.000039 0.140580
v 0.086184 0.000039 0.004751
v -0.000243 -0.108147 0.004751
v 0.086184 -0.108147 0.004751
v 0.086184 -0.006961 0.004751
v -0.000243 -0.006961 0.004751
v 0.086184 -0.115147 0.146275
v -0.000243 -0.115147 0.146275
v -0.000244 0.000039 0.146275
v 0.086184 0.000039 0.146275
v 0.084002 -0.112952 0.007250
v -0.000243 -0.113026 0.007312
v -0.000243 -0.113026 0.137377
v 0.084002 -0.112952 0.137377
v -0.000243 -0.002083 0.007312
v 0.084002 -0.002157 0.007250
v 0.084002 -0.002157 0.137377
v -0.000243 -0.002083 0.137377
v 0.084002 -0.108147 0.007250
v -0.000243 -0.108147 0.007312
v -0.000243 -0.006961 0.007312
v 0.084002 -0.006961 0.007250
v -0.000243 -0.108147 0.140933
v -0.000243 -0.108147 0.137377
v -0.000243 -0.006961 0.140933
v -0.000243 -0.006961 0.137377
v -0.000243 -0.006961 0.146275
v 0.086184 -0.006961 0.146275
v 0.086184 -0.108147 0.146275
v -0.000243 -0.108147 0.146275
v -0.007441 0.000039 0.140933
v -0.007441 0.000039 0.146275
v -0.007441 -0.108147 0.140933
v -0.007441 -0.006961 0.140933
v -0.007441 -0.115147 0.146275
v -0.007441 -0.115147 0.140933
v -0.007441 -0.108147 0.146275
v -0.007441 -0.006961 0.146275
v 0.086184 -0.006961 0.140580
v 0.086184 -0.108147 0.140580
v 0.084002 -0.006961 0.137377
v 0.084002 -0.108147 0.137377
vn -0.0000 -1.0000 -0.0000
vn -0.0000 1.0000 -0.0000
vn -0.0000 -0.0000 -1.0000
vn -0.0009 1.0000 -0.0000
vn -0.0009 -1.0000 -0.0000
vn 0.0007 -0.0000 1.0000
vn -1.0000 -0.0001 -0.0001
vn -1.0000 -0.0001 -0.0000
vn -1.0000 -0.0002 -0.0001
vn -1.0000 -0.0000 -0.0000
vn -1.0000 -0.0000 -0.0001
vn -0.0000 -0.0000 1.0000
vn -0.0245 -0.0252 -0.9994
vn -0.0245 0.0252 -0.9994
vn 1.0000 -0.0000 -0.0000
vt 0.387172 0.517426
vt 0.612828 0.517426
vt 0.612828 0.732574
vt 0.387172 0.732574
vt 0.387172 0.017426
vt 0.612828 0.017426
vt 0.612828 0.232574
vt 0.387172 0.232574
vt 0.000000 0.000000
vt 0.359807 0.732574
vt 0.359807 0.517426
vt 0.140193 0.517426
vt 0.000000 0.000000
vt 0.140193 0.732574
vt 0.612828 0.517426
vt 0.612828 0.732574
vt 0.612828 0.017426
vt 0.612828 0.232574
vt 0.387172 0.517426
vt 0.387172 0.732574
vt 0.612828 0.732574
vt 0.612828 0.517426
vt 0.387172 0.017426
vt 0.387172 0.232574
vt 0.612828 0.232574
vt 0.612828 0.017426
vt 0.359807 0.517426
vt 0.000000 0.000000
vt 0.359807 0.732574
vt 0.000000 0.000000
vt 0.140193 0.732574
vt 0.140193 0.517426
vt 0.640193 0.732574
vt 0.000000 0.000000
vt 0.640193 0.732574
vt 0.000000 0.000000
vt 0.859807 0.732574
vt 0.000000 0.000000
vt 0.859807 0.732574
vt 0.000000 0.000000
vt 0.859807 0.732574
vt 0.000000 0.000000
vt 0.859807 0.517426
vt 0.640193 0.517426
vt 0.000000 0.000000
vt 0.640193 0.732574
vt 0.612828 0.017426
vt 0.612828 0.017426
vt 0.640193 0.732574
vt 0.000000 0.000000
vt 0.859807 0.732574
vt 0.000000 0.000000
vt 0.612828 0.732574
vt 0.612828 0.732574
vt 0.000000 0.000000
vt 0.640193 0.732574
vt 0.859807 0.732574
vt 0.000000 0.000000
vt 0.000000 0.000000
vt 0.000000 0.000000
vt 0.859807 0.517426
vt 0.000000 0.000000
vt 0.640193 0.517426
vt 0.000000 0.000000
s 1
usemtl basic_2
f 1/1/1 2/2/1 3/3/1 4/4/1
f 5/5/2 6/6/2 7/7/2 8/8/2
f 1/1/3 4/4/3 9/9/3 10/11/3
f 8/8/3 11/12/3 12/13/3 5/5/3
f 3/3/1 2/2/1 13/15/1 14/16/1
f 7/7/2 6/6/2 15/17/2 16/18/2
f 11/12/3 10/11/3 9/10/3 12/14/3
f 17/19/4 18/20/4 19/21/4 20/22/4
f 21/23/5 22/24/5 23/25/5 24/26/5
f 17/19/6 25/27/6 26/28/6 18/20/6
f 22/24/6 21/23/6 27/30/6 28/32/6
f 28/32/6 27/31/6 26/29/6 25/27/6
f 6/6/7 5/5/8 21/23/8 24/26/9
f 3/3/10 29/34/10 30/36/10 19/21/10
f 9/9/10 4/4/10 18/20/10 26/28/10
f 5/5/8 12/13/10 27/30/10 21/23/8
f 31/38/11 6/6/7 24/26/9 32/40/11
f 4/4/10 3/3/10 19/21/10 18/20/10
f 12/14/10 9/10/10 26/29/10 27/31/10
f 29/33/10 31/37/11 32/39/11 30/35/10
f 16/18/12 15/17/12 33/42/12 34/43/12
f 13/15/12 35/44/12 36/45/12 14/16/12
f 15/17/2 6/6/2 37/47/2 38/48/2
f 31/37/3 29/33/3 39/49/3 40/51/3
f 3/3/1 14/16/1 41/53/1 42/54/1
f 39/50/10 42/54/10 41/53/10 43/55/10
f 37/47/10 40/52/10 44/58/10 38/48/10
f 40/51/10 39/49/10 43/56/10 44/57/10
f 6/6/13 31/38/13 40/52/13 37/47/13
f 14/16/12 36/45/12 43/55/12 41/53/12
f 36/46/12 33/41/12 44/57/12 43/56/12
f 29/34/14 3/3/14 42/54/14 39/50/14
f 33/42/12 15/17/12 38/48/12 44/58/12
f 16/18/15 34/43/15 45/59/15 7/7/15
f 11/12/15 8/8/15 7/7/15 45/59/15
f 46/60/15 45/59/15 34/43/15 35/44/15
f 2/2/15 46/60/15 35/44/15 13/15/15
f 10/11/15 46/60/15 2/2/15 1/1/15
f 10/11/15 11/12/15 45/59/15 46/60/15
f 22/24/10 28/32/10 47/61/10 23/25/10
f 25/27/10 48/64/10 47/62/10 28/32/10
f 17/19/10 20/22/10 48/63/10 25/27/10
f 23/25/3 47/62/3 32/40/3 24/26/3
f 20/22/3 19/21/3 30/36/3 48/64/3
o Cube.145_Cube.173_darck
v 0.007090 -0.108666 0.000017
v 0.008423 -0.108666 0.005998
v 0.006875 -0.111348 0.005998
v 0.006208 -0.110194 0.000017
v 0.003778 -0.111348 0.005998
v 0.004445 -0.110194 0.000017
v 0.002230 -0.108666 0.005998
v 0.003563 -0.108666 0.000017
v 0.003778 -0.105984 0.005998
v 0.004445 -0.107139 0.000017
v 0.006875 -0.105984 0.005998
v 0.006208 -0.107139 0.000017
v 0.007090 -0.007487 0.000017
v 0.008423 -0.007487 0.005998
v 0.006875 -0.010169 0.005998
v 0.006208 -0.009014 0.000017
v 0.003778 -0.010169 0.005998
v 0.004445 -0.009014 0.000017
v 0.002230 -0.007487 0.005998
v 0.003563 -0.007487 0.000017
v 0.003778 -0.004805 0.005998
v 0.004445 -0.005959 0.000017
v 0.006875 -0.004805 0.005998
v 0.006208 -0.005959 0.000017
v 0.080602 -0.007487 0.000017
v 0.081935 -0.007487 0.005998
v 0.080387 -0.010169 0.005998
v 0.079720 -0.009014 0.000017
v 0.077290 -0.010169 0.005998
v 0.077957 -0.009014 0.000017
v 0.075742 -0.007487 0.005998
v 0.077075 -0.007487 0.000017
v 0.077290 -0.004805 0.005998
v 0.077957 -0.005959 0.000017
v 0.080387 -0.004805 0.005998
v 0.079720 -0.005959 0.000017
v 0.080602 -0.108666 0.000017
v 0.081935 -0.108666 0.005998
v 0.080387 -0.111348 0.005998
v 0.079720 -0.110194 0.000017
v 0.077290 -0.111348 0.005998
v 0.077957 -0.110194 0.000017
v 0.075742 -0.108666 0.005998
v 0.077075 -0.108666 0.000017
v 0.077290 -0.105984 0.005998
v 0.077957 -0.107139 0.000017
v 0.080387 -0.105984 0.005998
v 0.079720 -0.107139 0.000017
vn 0.8504 -0.4908 -0.1895
vn -0.0000 -0.9819 -0.1895
vn -0.8504 -0.4908 -0.1895
vn -0.8503 0.4909 -0.1896
vn -0.0000 -0.0000 1.0000
vn -0.0000 0.9819 -0.1896
vn 0.8503 0.4909 -0.1896
vn -0.0000 -0.0000 -1.0000
vn 0.8503 -0.4909 -0.1896
vn -0.0000 -0.9819 -0.1896
vn -0.8503 -0.4909 -0.1896
vn -0.8504 0.4908 -0.1895
vn -0.0000 0.9819 -0.1895
vn 0.8504 0.4908 -0.1895
vt 1.000000 0.500000
vt -0.000000 0.500000
vt 0.750000 0.490000
vt 1.000000 1.000000
vt 0.250000 0.490000
vt -0.000000 1.000000
vt 0.833333 1.000000
vt 0.457846 0.370000
vt 0.833333 0.500000
vt 0.957846 0.370000
vt 0.666667 1.000000
vt 0.457846 0.130000
vt 0.666667 0.500000
vt 0.957846 0.130000
vt 0.500000 1.000000
vt 0.250000 0.010000
vt 0.500000 0.500000
vt 0.750000 0.010000
vt 0.042154 0.130000
vt 0.333333 1.000000
vt 0.333333 0.500000
vt 0.542154 0.130000
vt 0.042154 0.370000
vt 0.166667 1.000000
vt 0.166667 0.500000
vt 0.542154 0.370000
vt 1.000000 0.500000
vt -0.000000 0.500000
vt 0.750000 0.490000
vt 1.000000 1.000000
vt 0.250000 0.490000
vt -0.000000 1.000000
vt 0.833333 1.000000
vt 0.457846 0.370000
vt 0.833333 0.500000
vt 0.957846 0.370000
vt 0.666667 1.000000
vt 0.457846 0.130000
vt 0.666667 0.500000
vt 0.957846 0.130000
vt 0.500000 1.000000
vt 0.250000 0.010000
vt 0.500000 0.500000
vt 0.750000 0.010000
vt 0.042154 0.130000
vt 0.333333 1.000000
vt 0.333333 0.500000
vt 0.542154 0.130000
vt 0.042154 0.370000
vt 0.166667 1.000000
vt 0.166667 0.500000
vt 0.542154 0.370000
vt 1.000000 0.500000
vt -0.000000 0.500000
vt 0.750000 0.490000
vt 1.000000 1.000000
vt 0.250000 0.490000
vt -0.000000 1.000000
vt 0.833333 1.000000
vt 0.457846 0.370000
vt 0.833333 0.500000
vt 0.957846 0.370000
vt 0.666667 1.000000
vt 0.457846 0.130000
vt 0.666667 0.500000
vt 0.957846 0.130000
vt 0.500000 1.000000
vt 0.250000 0.010000
vt 0.500000 0.500000
vt 0.750000 0.010000
vt 0.042154 0.130000
vt 0.333333 1.000000
vt 0.333333 0.500000
vt 0.542154 0.130000
vt 0.042154 0.370000
vt 0.166667 1.000000
vt 0.166667 0.500000
vt 0.542154 0.370000
vt 1.000000 0.500000
vt -0.000000 0.500000
vt 0.750000 0.490000
vt 1.000000 1.000000
vt 0.250000 0.490000
vt -0.000000 1.000000
vt 0.833333 1.000000
vt 0.457846 0.370000
vt 0.833333 0.500000
vt 0.957846 0.370000
vt 0.666667 1.000000
vt 0.457846 0.130000
vt 0.666667 0.500000
vt 0.957846 0.130000
vt 0.500000 1.000000
vt 0.250000 0.010000
vt 0.500000 0.500000
vt 0.750000 0.010000
vt 0.042154 0.130000
vt 0.333333 1.000000
vt 0.333333 0.500000
vt 0.542154 0.130000
vt 0.042154 0.370000
vt 0.166667 1.000000
vt 0.166667 0.500000
vt 0.542154 0.370000
s 1
usemtl darck
f 49/65/16 50/68/16 51/71/16 52/73/16
f 52/73/17 51/71/17 53/75/17 54/77/17
f 54/77/18 53/75/18 55/79/18 56/81/18
f 56/81/19 55/79/19 57/84/19 58/85/19
f 51/72/20 50/69/20 59/87/20 57/83/20 55/80/20 53/76/20
f 58/85/21 57/84/21 59/88/21 60/89/21
f 60/89/22 59/88/22 50/70/22 49/66/22
f 49/67/23 52/74/23 54/78/23 56/82/23 58/86/23 60/90/23
f 61/91/24 62/94/24 63/97/24 64/99/24
f 64/99/25 63/97/25 65/101/25 66/103/25
f 66/103/26 65/101/26 67/105/26 68/107/26
f 68/107/27 67/105/27 69/110/27 70/111/27
f 63/98/20 62/95/20 71/113/20 69/109/20 67/106/20 65/102/20
f 70/111/28 69/110/28 71/114/28 72/115/28
f 72/115/29 71/114/29 62/96/29 61/92/29
f 61/93/23 64/100/23 66/104/23 68/108/23 70/112/23 72/116/23
f 73/117/24 74/120/24 75/123/24 76/125/24
f 76/125/25 75/123/25 77/127/25 78/129/25
f 78/129/26 77/127/26 79/131/26 80/133/26
f 80/133/27 79/131/27 81/136/27 82/137/27
f 75/124/20 74/121/20 83/139/20 81/135/20 79/132/20 77/128/20
f 82/137/28 81/136/28 83/140/28 84/141/28
f 84/141/29 83/140/29 74/122/29 73/118/29
f 73/119/23 76/126/23 78/130/23 80/134/23 82/138/23 84/142/23
f 85/143/16 86/146/16 87/149/16 88/151/16
f 88/151/17 87/149/17 89/153/17 90/155/17
f 90/155/18 89/153/18 91/157/18 92/159/18
f 92/159/19 91/157/19 93/162/19 94/163/19
f 87/150/20 86/147/20 95/165/20 93/161/20 91/158/20 89/154/20
f 94/163/21 93/162/21 95/166/21 96/167/21
f 96/167/22 95/166/22 86/148/22 85/144/22
f 85/145/23 88/152/23 90/156/23 92/160/23 94/164/23 96/168/23
