# Blender 3.4.1
# www.blender.org
mtllib door.mtl
o Cube.146_Cube.174_basic_1
v -0.007243 -0.108147 0.004751
v -0.007243 -0.108147 0.140506
v -0.007243 -0.006961 0.140506
v -0.007243 -0.006961 0.004751
v -0.000014 -0.108147 0.140506
v -0.000014 -0.006961 0.140506
v -0.000014 -0.006961 0.004751
v -0.000014 -0.108147 0.004751
v -0.005193 -0.002012 0.140506
v -0.005193 -0.002012 0.004751
v -0.000014 0.000039 0.140506
v -0.000014 0.000039 0.004751
v -0.005193 -0.113097 0.004751
v -0.000014 -0.115147 0.004751
v -0.005193 -0.113097 0.140506
v -0.000014 -0.115147 0.140506
v -0.005048 -0.107711 0.006923
v -0.005048 -0.007398 0.006923
v -0.005048 -0.007398 0.138334
v -0.005048 -0.107711 0.138334
v -0.000014 -0.006961 0.138334
v -0.000014 -0.108147 0.138334
v -0.000014 -0.108147 0.006923
v -0.000014 -0.006961 0.006923
v -0.003546 -0.003658 0.006923
v -0.003546 -0.003658 0.138334
v -0.000014 -0.002179 0.006923
v -0.000014 -0.002179 0.138334
v -0.003546 -0.111450 0.006923
v -0.000014 -0.112930 0.006923
v -0.003546 -0.111450 0.138334
v -0.000014 -0.112930 0.138334
vn -1.0000 -0.0000 -0.0000
vn -0.0000 -0.0000 1.0000
vn -0.0000 -0.0000 -1.0000
vn -0.9239 0.3827 -0.0000
vn -0.3682 0.9297 -0.0000
vn -0.9239 -0.3826 -0.0000
vn -0.3680 -0.9298 -0.0000
vn 1.0000 -0.0000 -0.0000
vn 0.9280 -0.3727 -0.0000
vn 0.3862 -0.9224 -0.0000
vn 0.9279 0.3728 -0.0000
vn 0.3865 0.9223 -0.0000
vt 0.387172 0.765193
vt 0.612828 0.765193
vt 0.612828 0.984807
vt 0.387172 0.984807
vt 0.000000 0.000000
vt 0.640193 0.732574
vt 0.000000 0.000000
vt 0.000000 0.000000
vt 0.000000 0.000000
vt 0.359807 0.732574
vt 0.612828 1.000000
vt 0.612828 0.000000
vt 0.387172 1.000000
vt 0.387172 0.000000
vt 0.612828 0.017426
vt 0.387172 0.017426
vt 0.387172 0.750000
vt 0.387172 0.732574
vt 0.612828 0.750000
vt 0.612828 0.732574
vt 0.387172 0.765193
vt 0.387172 0.984807
vt 0.612828 0.984807
vt 0.612828 0.765193
vt 0.000000 0.000000
vt 0.000000 0.000000
vt 0.640193 0.732574
vt 0.000000 0.000000
vt 0.359807 0.732574
vt 0.000000 0.000000
vt 0.387172 1.000000
vt 0.387172 0.000000
vt 0.612828 1.000000
vt 0.612828 0.000000
vt 0.387172 0.017426
vt 0.612828 0.017426
vt 0.387172 0.750000
vt 0.387172 0.732574
vt 0.612828 0.750000
vt 0.612828 0.732574
s 1
usemtl basic_1
f 1/1/1 2/2/1 3/3/1 4/4/1
f 2/2/2 5/6/2 6/7/2 3/3/2
f 1/1/3 4/4/3 7/8/3 8/10/3
f 4/4/4 3/3/4 9/11/4 10/13/4
f 10/14/5 9/12/5 11/15/5 12/16/5
f 13/17/3 1/1/3 8/9/3 14/18/3
f 15/19/2 16/20/2 5/5/2 2/2/2
f 2/2/6 1/1/6 13/17/6 15/19/6
f 15/19/7 13/17/7 14/18/7 16/20/7
f 10/14/3 12/16/3 7/8/3 4/4/3
f 9/12/2 3/3/2 6/7/2 11/15/2
f 17/21/8 18/22/8 19/23/8 20/24/8
f 20/24/3 19/23/3 21/25/3 22/27/3
f 17/21/2 23/29/2 24/30/2 18/22/2
f 18/22/9 25/31/9 26/33/9 19/23/9
f 25/32/10 27/35/10 28/36/10 26/34/10
f 29/37/2 30/38/2 23/28/2 17/21/2
f 31/39/3 20/24/3 22/26/3 32/40/3
f 20/24/11 31/39/11 29/37/11 17/21/11
f 31/39/12 32/40/12 30/38/12 29/37/12
f 25/32/2 18/22/2 24/30/2 27/35/2
f 26/34/3 28/36/3 21/25/3 19/23/3
f 12/16/8 11/15/8 28/36/8 27/35/8
f 5/5/8 16/20/8 32/40/8 22/26/8
f 14/18/8 8/9/8 23/28/8 30/38/8
f 7/8/8 12/16/8 27/35/8 24/30/8
f 11/15/8 6/7/8 21/25/8 28/36/8
f 16/20/8 14/18/8 30/38/8 32/40/8
f 8/10/8 7/8/8 24/30/8 23/29/8
f 6/7/8 5/6/8 22/27/8 21/25/8
o Cube.146_Cube.174_basic_2
v -0.009184 -0.101304 0.129727
v -0.009184 -0.101304 0.132310
v -0.006673 -0.101304 0.132310
v -0.006673 -0.101304 0.129727
v -0.006673 -0.103887 0.132310
v -0.006673 -0.103887 0.129727
v -0.009184 -0.103887 0.129727
v -0.009184 -0.103887 0.132310
v -0.010896 -0.103887 0.131489
v -0.011695 -0.103887 0.129727
v -0.010896 -0.101304 0.131489
v -0.011695 -0.101304 0.129727
v -0.009184 -0.103887 0.083827
v -0.009184 -0.101304 0.083827
v -0.009184 -0.101304 0.081244
v -0.006673 -0.101304 0.083827
v -0.006673 -0.101304 0.081244
v -0.006673 -0.103887 0.083827
v -0.006673 -0.103887 0.081244
v -0.009184 -0.103887 0.081244
v -0.011695 -0.103887 0.083827
v -0.010896 -0.103887 0.082065
v -0.011695 -0.101304 0.083827
v -0.010896 -0.101304 0.082065
vn -0.0000 1.0000 -0.0000
vn 1.0000 -0.0000 -0.0000
vn -0.0000 -1.0000 -0.0000
vn -0.9107 -0.0000 0.4130
vn -0.4324 -0.0000 0.9017
vn -0.0000 -0.0000 1.0000
vn -0.0000 -0.0000 -1.0000
vn -0.9107 -0.0000 -0.4130
vn -0.4324 -0.0000 -0.9017
vn -1.0000 -0.0000 -0.0000
vt 0.125000 0.625000
vt 0.375000 0.125000
vt 0.875000 0.625000
vt 0.625000 0.125000
vt 0.625000 0.250000
vt 0.875000 0.500000
vt 0.375000 0.250000
vt 0.125000 0.500000
vt 0.625000 0.500000
vt 0.375000 0.500000
vt 0.375000 0.625000
vt 0.625000 0.625000
vt 0.625000 0.750000
vt 0.375000 0.750000
vt 0.625000 1.000000
vt 0.875000 0.750000
vt 0.625000 0.000000
vt 0.375000 1.000000
vt 0.375000 0.000000
vt 0.625000 0.625000
vt 0.875000 0.625000
vt 0.625000 0.125000
vt 0.125000 0.625000
vt 0.375000 0.125000
vt 0.625000 0.250000
vt 0.875000 0.500000
vt 0.375000 0.250000
vt 0.125000 0.500000
vt 0.625000 0.500000
vt 0.375000 0.500000
vt 0.375000 0.625000
vt 0.625000 0.750000
vt 0.375000 0.750000
vt 0.625000 1.000000
vt 0.625000 0.000000
vt 0.375000 1.000000
vt 0.125000 0.750000
vt 0.375000 0.000000
s 1
usemtl basic_2
f 33/42/13 34/44/13 35/45/13 36/47/13
f 36/47/14 35/45/14 37/49/14 38/50/14
f 39/51/15 40/52/15 41/53/15 42/54/15
f 42/54/16 41/53/16 43/55/16 44/58/16
f 39/51/14 45/60/14 46/61/14 33/42/14
f 40/52/17 34/43/17 43/56/17 41/53/17
f 37/49/18 35/46/18 34/43/18 40/52/18
f 36/48/19 38/50/19 39/51/19 33/41/19
f 38/50/15 37/49/15 40/52/15 39/51/15
f 44/59/13 43/57/13 34/44/13 33/42/13
f 47/64/13 46/62/13 48/65/13 49/67/13
f 49/67/14 48/65/14 50/69/14 51/70/14
f 52/71/15 45/60/15 53/72/15 54/73/15
f 54/73/20 53/72/20 55/74/20 56/76/20
f 47/63/21 52/71/21 54/73/21 56/77/21
f 33/42/13 46/62/13 55/75/13 44/59/13
f 50/69/18 48/66/18 46/61/18 45/60/18
f 49/68/19 51/70/19 52/71/19 47/63/19
f 51/70/15 50/69/15 45/60/15 52/71/15
f 56/78/13 55/75/13 46/62/13 47/64/13
f 42/54/15 53/72/15 45/60/15 39/51/15
f 44/59/22 55/75/22 53/72/22 42/54/22
