# Blender v2.79 (sub 0) OBJ File: ''
# www.blender.org
mtllib door.mtl
o Cube.098_Cube.126_darck
v -0.002748 -0.018008 0.064999
v -0.002748 -0.018008 0.067103
v 0.000528 -0.018008 0.067103
v 0.000528 -0.018008 0.064999
v 0.000528 -0.020112 0.067103
v 0.000528 -0.020112 0.064999
v -0.004666 -0.020112 0.064999
v -0.002748 -0.020112 0.064999
v -0.002748 -0.097415 0.064999
v -0.004666 -0.097415 0.064999
v -0.004666 -0.020112 0.067103
v -0.004308 -0.018697 0.067103
v -0.004308 -0.018697 0.064999
v -0.002748 -0.020112 0.067103
v -0.002748 -0.097415 0.067103
v 0.000528 -0.097415 0.067103
v 0.000528 -0.097415 0.064999
v 0.000528 -0.099519 0.067103
v 0.000528 -0.099519 0.064999
v -0.002748 -0.099519 0.064999
v -0.002748 -0.099519 0.067103
v -0.004308 -0.098820 0.067103
v -0.004308 -0.098820 0.064999
v -0.004666 -0.097415 0.067103
vt 0.375000 0.092323
vt 0.625000 0.092323
vt 0.625000 0.250000
vt 0.375000 0.250000
vt 0.625000 0.500000
vt 0.375000 0.500000
vt 0.375000 0.750000
vt 0.375000 0.657677
vt 0.125000 0.657677
vt 0.125000 0.750000
vt 0.625000 0.750000
vt 0.625000 1.000000
vt 0.375000 1.000000
vt 0.125000 0.657677
vt 0.125000 0.750000
vt 0.625000 0.657677
vt 0.875000 0.657677
vt 0.875000 0.750000
vt 0.875000 0.500000
vt 0.125000 0.500000
vt 0.375000 0.000000
vt 0.625000 0.000000
vt 0.375000 0.092323
vt 0.625000 0.092323
vt 0.625000 0.250000
vt 0.375000 0.250000
vt 0.625000 0.500000
vt 0.375000 0.500000
vt 0.375000 0.657677
vt 0.625000 0.657677
vt 0.625000 0.750000
vt 0.375000 0.750000
vt 0.625000 1.000000
vt 0.375000 1.000000
vt 0.875000 0.657677
vt 0.875000 0.750000
vt 0.875000 0.500000
vt 0.125000 0.500000
vn 0.0000 1.0000 0.0000
vn 1.0000 0.0000 0.0000
vn 0.0000 0.0000 -1.0000
vn -0.9695 0.2453 0.0000
vn 0.0000 0.0000 1.0000
vn 0.0000 -1.0000 -0.0000
vn -0.4040 0.9148 -0.0000
vn -0.4089 -0.9126 -0.0000
vn -0.9690 -0.2469 0.0000
vn -1.0000 0.0000 0.0000
usemtl darck
s 1
f 1/1/1 2/2/1 3/3/1 4/4/1
f 4/4/2 3/3/2 5/5/2 6/6/2
f 7/7/3 8/8/3 9/9/3 10/10/3
f 7/7/4 11/11/4 12/12/4 13/13/4
f 1/14/3 8/8/3 7/7/3 13/15/3
f 14/16/5 2/17/5 12/18/5 11/11/5
f 5/5/5 3/19/5 2/17/5 14/16/5
f 4/20/3 6/6/3 8/8/3 1/14/3
f 6/6/6 5/5/6 14/16/6 8/8/6
f 13/21/7 12/22/7 2/2/7 1/1/7
f 9/23/1 15/24/1 16/25/1 17/26/1
f 17/26/2 16/25/2 18/27/2 19/28/2
f 20/29/8 21/30/8 22/31/8 23/32/8
f 23/32/9 22/31/9 24/33/9 10/34/9
f 9/9/3 20/29/3 23/32/3 10/10/3
f 21/30/5 15/35/5 24/36/5 22/31/5
f 18/27/5 16/37/5 15/35/5 21/30/5
f 17/38/3 19/28/3 20/29/3 9/9/3
f 19/28/6 18/27/6 21/30/6 20/29/6
f 8/8/2 14/16/2 15/24/2 9/23/2
f 14/16/5 11/11/5 24/36/5 15/24/5
f 11/11/10 7/7/10 10/34/10 24/36/10
o Cube.098_Cube.126_glosi
v 0.000739 -0.066747 0.017759
v 0.000739 -0.076770 0.020444
v 0.000739 -0.084107 0.027781
v 0.000739 -0.086792 0.037803
v 0.000739 -0.084107 0.047826
v 0.000739 -0.076770 0.055163
v 0.000739 -0.066747 0.057848
v 0.000739 -0.050616 0.057848
v 0.000739 -0.040593 0.055163
v 0.000739 -0.033256 0.047826
v 0.000739 -0.030571 0.037803
v 0.000739 -0.033256 0.027781
v 0.000739 -0.040593 0.020444
v 0.000739 -0.050616 0.017759
vt 0.439735 0.855127
vt 0.442314 0.830432
vt 0.449358 0.812355
vt 0.458982 0.805738
vt 0.468605 0.812355
vt 0.475650 0.830432
vt 0.478229 0.855126
vt 0.478229 0.894874
vt 0.475650 0.919568
vt 0.468605 0.937645
vt 0.458982 0.944262
vt 0.449358 0.937645
vt 0.442314 0.919568
vt 0.439735 0.894874
vn -1.0000 0.0000 -0.0000
usemtl glosi
s 1
f 25/39/11 26/40/11 27/41/11 28/42/11 29/43/11 30/44/11 31/45/11 32/46/11 33/47/11 34/48/11 35/49/11 36/50/11 37/51/11 38/52/11
o Cube.098_Cube.126_basic_2
v 0.000095 -0.006150 0.000011
v 0.000095 -0.006150 0.017009
v 0.001639 -0.001856 0.017009
v 0.001639 -0.001856 0.000011
v 0.001639 -0.115507 0.075205
v 0.001639 -0.115507 0.058880
v 0.006338 -0.117285 0.058880
v 0.006338 -0.117285 0.075205
v 0.000095 -0.111213 0.075205
v 0.000095 -0.111213 0.058880
v 0.006338 -0.000078 0.017009
v 0.006338 -0.000078 0.000011
v 0.000095 -0.086792 0.037803
v 0.000095 -0.084107 0.027781
v 0.000095 -0.111213 0.017161
v 0.000095 -0.111213 0.037870
v 0.000095 -0.033256 0.027781
v 0.000095 -0.040593 0.020444
v 0.000095 -0.066747 0.057848
v 0.000095 -0.076770 0.055163
v 0.000095 -0.073896 0.075205
v 0.000095 -0.066747 0.017759
v 0.000095 -0.050616 0.017759
v 0.000095 -0.043541 0.000011
v 0.000095 -0.074280 0.000011
v 0.000095 -0.030571 0.037803
v 0.000095 -0.006150 0.037622
v 0.000095 -0.040593 0.055163
v 0.000095 -0.050616 0.057848
v 0.000095 -0.043489 0.075205
v 0.000095 -0.006150 0.075205
v 0.000095 -0.084107 0.047826
v 0.000095 -0.076770 0.020444
v 0.000095 -0.111213 0.000011
v 0.000095 -0.033256 0.047826
v 0.000095 -0.006150 0.058325
v 0.006338 -0.117285 0.017161
v 0.001639 -0.115507 0.017161
v 0.001639 -0.115507 0.000011
v 0.006338 -0.117285 0.000011
v 0.006338 -0.117285 0.037870
v 0.001639 -0.115507 0.037870
v 0.001639 -0.001856 0.037622
v 0.006338 -0.000078 0.037622
v 0.001639 -0.001856 0.058325
v 0.006338 -0.000078 0.058325
v 0.001639 -0.001856 0.075205
v 0.006338 -0.000078 0.075205
v 0.000739 -0.050616 0.057848
v 0.000739 -0.066747 0.057848
v 0.001088 -0.006341 0.000006
v 0.002335 -0.002574 0.000011
v 0.002335 -0.002574 0.017009
v 0.001088 -0.006338 0.017008
v 0.002335 -0.114789 0.075205
v 0.006692 -0.116350 0.075205
v 0.006692 -0.116350 0.058880
v 0.002335 -0.114789 0.058880
v 0.001088 -0.111022 0.075211
v 0.001088 -0.111025 0.058882
v 0.006692 -0.001013 0.000011
v 0.006692 -0.001013 0.017009
v 0.001088 -0.086803 0.037803
v 0.001088 -0.111027 0.037870
v 0.001088 -0.111025 0.017159
v 0.001088 -0.084116 0.027779
v 0.001088 -0.033248 0.027779
v 0.001088 -0.040590 0.020435
v 0.001088 -0.066748 0.057862
v 0.001088 -0.073897 0.075230
v 0.001088 -0.076773 0.055172
v 0.001088 -0.066748 0.017745
v 0.001088 -0.074281 -0.000013
v 0.001088 -0.043541 -0.000013
v 0.001088 -0.050615 0.017745
v 0.001088 -0.006336 0.037622
v 0.001088 -0.030561 0.037803
v 0.001088 -0.040590 0.055172
v 0.001088 -0.006341 0.075211
v 0.001088 -0.043489 0.075230
v 0.001088 -0.050615 0.057862
v 0.001088 -0.084116 0.047827
v 0.001088 -0.076773 0.020435
v 0.001088 -0.111022 0.000006
v 0.001088 -0.006338 0.058326
v 0.001088 -0.033248 0.047827
v 0.006692 -0.116350 0.017161
v 0.006692 -0.116350 0.000011
v 0.002335 -0.114789 0.000011
v 0.002335 -0.114789 0.017161
v 0.006692 -0.116350 0.037870
v 0.002335 -0.114789 0.037870
v 0.006692 -0.001013 0.037622
v 0.002335 -0.002574 0.037622
v 0.006692 -0.001013 0.058325
v 0.002335 -0.002574 0.058325
v 0.006692 -0.001013 0.075205
v 0.002335 -0.002574 0.075205
v 0.000739 -0.033256 0.027781
v 0.000739 -0.030571 0.037803
v 0.000739 -0.040593 0.055163
v 0.000739 -0.033256 0.047826
v 0.000739 -0.066747 0.017759
v 0.000739 -0.050616 0.017759
v 0.000739 -0.076770 0.020444
v 0.000739 -0.040593 0.020444
v 0.000739 -0.084107 0.047826
v 0.000739 -0.086792 0.037803
v 0.000739 -0.076770 0.055163
v 0.000739 -0.084107 0.027781
vt 0.417963 0.987048
vt 0.436507 0.987048
vt 0.436376 1.000000
vt 0.417963 1.000000
vt 0.500000 0.750000
vt 0.481616 0.750000
vt 0.482101 0.735000
vt 0.500000 0.735000
vt 0.500000 0.762952
vt 0.481457 0.762952
vt 0.417963 0.000000
vt 0.436376 0.000000
vt 0.436504 0.015000
vt 0.417952 0.015000
vt 0.458982 0.805738
vt 0.449358 0.812355
vt 0.449358 0.812355
vt 0.458982 0.805738
vt 0.449358 0.937645
vt 0.449358 0.937645
vt 0.442314 0.919568
vt 0.478229 0.855126
vt 0.475650 0.830432
vt 0.475650 0.830432
vt 0.478229 0.855126
vt 0.439735 0.855127
vt 0.439735 0.894874
vt 0.439735 0.894874
vt 0.439735 0.855127
vt 0.458982 0.944262
vt 0.458982 0.944262
vt 0.475650 0.919568
vt 0.478229 0.894874
vt 0.478229 0.894874
vt 0.475650 0.919568
vt 0.442314 0.919568
vt 0.468605 0.812355
vt 0.468605 0.812355
vt 0.442314 0.830432
vt 0.442314 0.830432
vt 0.468605 0.937645
vt 0.468605 0.937645
vt 0.481457 0.987048
vt 0.436507 0.762952
vt 0.436292 0.735000
vt 0.436020 0.750000
vt 0.417963 0.750000
vt 0.417952 0.735000
vt 0.458824 0.735000
vt 0.458407 0.750000
vt 0.436469 0.735000
vt 0.458982 0.762952
vt 0.481903 0.735000
vt 0.458406 0.000000
vt 0.458658 0.015000
vt 0.458982 0.987048
vt 0.458406 1.000000
vt 0.481120 0.000000
vt 0.481068 0.015000
vt 0.481120 1.000000
vt 0.500000 0.000000
vt 0.500000 0.015000
vt 0.500000 0.987048
vt 0.500000 1.000000
vt 0.417963 0.762952
vt 0.478229 0.894874
vt 0.478229 0.855126
vt 0.417963 0.987048
vt 0.417963 1.000000
vt 0.436376 1.000000
vt 0.436507 0.987048
vt 0.500000 0.750000
vt 0.500000 0.735000
vt 0.482101 0.735000
vt 0.481616 0.750000
vt 0.500000 0.762952
vt 0.481457 0.762952
vt 0.417963 0.000000
vt 0.417952 0.015000
vt 0.436504 0.015000
vt 0.436376 0.000000
vt 0.458982 0.805738
vt 0.458982 0.805738
vt 0.449358 0.812355
vt 0.449358 0.812355
vt 0.449358 0.937645
vt 0.442314 0.919568
vt 0.449358 0.937645
vt 0.478229 0.855126
vt 0.478229 0.855126
vt 0.475650 0.830432
vt 0.475650 0.830432
vt 0.439735 0.855127
vt 0.439735 0.855127
vt 0.439735 0.894874
vt 0.439735 0.894874
vt 0.458982 0.944262
vt 0.458982 0.944262
vt 0.475650 0.919568
vt 0.475650 0.919568
vt 0.478229 0.894874
vt 0.478229 0.894874
vt 0.442314 0.919568
vt 0.468605 0.812355
vt 0.468605 0.812355
vt 0.442314 0.830432
vt 0.442314 0.830432
vt 0.468605 0.937645
vt 0.468605 0.937645
vt 0.481457 0.987048
vt 0.436507 0.762952
vt 0.436292 0.735000
vt 0.417952 0.735000
vt 0.417963 0.750000
vt 0.436020 0.750000
vt 0.458824 0.735000
vt 0.436469 0.735000
vt 0.458407 0.750000
vt 0.458982 0.762952
vt 0.481903 0.735000
vt 0.458658 0.015000
vt 0.458406 0.000000
vt 0.458406 1.000000
vt 0.458982 0.987048
vt 0.481068 0.015000
vt 0.481120 0.000000
vt 0.481120 1.000000
vt 0.500000 0.015000
vt 0.500000 0.000000
vt 0.500000 1.000000
vt 0.500000 0.987048
vt 0.417963 0.762952
vt 0.449358 0.937645
vt 0.458982 0.944262
vt 0.475650 0.919568
vt 0.468605 0.937645
vt 0.439735 0.855127
vt 0.439735 0.894874
vt 0.442314 0.830432
vt 0.442314 0.919568
vt 0.468605 0.812355
vt 0.458982 0.805738
vt 0.475650 0.830432
vt 0.449358 0.812355
vn -0.9410 0.3384 -0.0000
vn -0.3539 -0.9353 0.0000
vn -0.9410 -0.3384 -0.0000
vn -0.3539 0.9353 -0.0000
vn -1.0000 0.0000 -0.0000
vn 0.0000 0.0000 -1.0000
vn 0.9493 -0.3144 0.0000
vn 0.9493 -0.3145 0.0000
vn 0.3373 0.9414 0.0000
vn 0.9493 0.3144 -0.0000
vn 0.9493 0.3145 -0.0000
vn 0.3373 -0.9414 0.0000
vn 1.0000 0.0000 0.0000
vn 0.9492 0.3146 0.0000
vn 0.9494 0.3139 -0.0001
vn 0.9492 -0.3146 0.0000
vn 0.9495 -0.3138 0.0001
vn -0.0001 -0.0001 1.0000
vn 0.0000 0.0000 1.0000
vn -0.0001 0.0001 1.0000
vn -0.0028 0.0003 1.0000
vn -0.0029 -0.0004 1.0000
vn -0.0028 -0.0001 1.0000
vn -0.0030 0.0004 1.0000
vn 0.9352 -0.3541 0.0000
vn -0.0145 0.0022 -0.9999
vn -0.0023 0.0014 -1.0000
vn -0.0011 0.0007 -1.0000
vn -0.0138 0.0041 -0.9999
vn -0.0023 -0.0014 -1.0000
vn -0.0011 -0.0007 -1.0000
vn 0.9352 0.3541 0.0000
vn -0.0155 0.0003 0.9999
vn -0.0145 -0.0021 -0.9999
vn -0.0139 -0.0039 -0.9999
vn -0.0156 -0.0003 0.9999
vn 0.9354 -0.3535 0.0000
vn -0.0242 0.0005 -0.9997
vn -0.0242 -0.0004 -0.9997
vn 0.0000 -0.9659 0.2588
vn 0.0000 -0.2588 -0.9659
vn 0.0000 -0.7071 -0.7071
vn 0.0000 -0.9659 -0.2588
vn 0.0000 0.2588 0.9659
vn 0.0000 -0.7071 0.7071
vn 0.0000 0.9659 -0.2588
vn 0.0000 -0.2588 0.9659
vn 0.0000 0.7071 -0.7071
vn 0.0000 0.7071 0.7071
vn 0.0000 0.2588 -0.9659
vn 0.0000 0.9659 0.2588
usemtl basic_2
s 1
f 39/53/12 40/54/12 41/55/12 42/56/12
f 43/57/13 44/58/13 45/59/13 46/60/13
f 47/61/14 48/62/14 44/58/14 43/57/14
f 42/63/15 41/64/15 49/65/15 50/66/15
f 51/67/16 52/68/16 53/69/16 54/70/16
f 55/71/16 40/72/16 39/53/16 56/73/16
f 57/74/16 58/75/16 47/76/16 59/77/16
f 60/78/16 61/79/16 62/80/16 63/81/16
f 55/71/16 64/82/16 65/83/16 40/72/16
f 66/84/16 67/85/16 68/86/16 69/87/16
f 61/79/16 56/73/16 39/88/16 62/80/16
f 70/89/16 51/67/16 54/70/16 48/90/16
f 71/91/16 60/78/16 63/81/16 72/92/16
f 67/85/16 57/74/16 59/77/16 68/86/16
f 64/82/16 73/93/16 74/94/16 65/83/16
f 66/84/16 69/87/16 74/95/16 73/93/16
f 70/89/16 48/90/16 47/61/16 58/75/16
f 71/91/16 72/92/16 53/96/16 52/68/16
f 75/97/13 76/98/13 77/99/13 78/100/13
f 79/101/13 80/102/13 76/98/13 75/103/13
f 80/102/14 54/104/14 53/96/14 76/98/14
f 45/105/13 44/58/13 80/102/13 79/101/13
f 44/58/14 48/62/14 54/104/14 80/102/14
f 49/65/15 41/64/15 81/106/15 82/107/15
f 41/55/12 40/54/12 65/108/12 81/109/12
f 82/107/15 81/106/15 83/110/15 84/111/15
f 81/109/12 65/108/12 74/95/12 83/112/12
f 84/111/15 83/110/15 85/113/15 86/114/15
f 83/112/12 74/95/12 69/115/12 85/116/12
f 76/98/14 53/96/14 72/117/14 77/99/14
f 57/74/17 67/85/17 87/118/17 88/119/17
f 89/120/18 90/121/18 91/122/19 92/123/19
f 93/124/20 94/125/20 95/126/20 96/127/20
f 97/128/21 93/124/21 96/127/22 98/129/22
f 90/130/23 99/131/23 100/132/23 91/133/23
f 101/134/24 102/135/24 103/136/24 104/137/24
f 105/138/24 106/139/24 89/120/24 92/140/24
f 107/141/24 108/142/24 97/143/24 109/144/24
f 110/145/24 111/146/24 112/147/24 113/148/24
f 105/138/24 92/140/24 114/149/24 115/150/24
f 116/151/24 117/152/24 118/153/24 119/154/24
f 113/148/24 112/147/24 89/155/24 106/139/24
f 120/156/24 98/157/24 102/135/24 101/134/24
f 121/158/24 122/159/24 111/146/24 110/145/24
f 119/154/24 118/153/24 108/142/24 107/141/24
f 115/150/24 114/149/24 123/160/24 124/161/24
f 116/151/24 124/161/24 123/162/24 117/152/24
f 120/156/24 109/144/24 97/128/24 98/157/24
f 121/158/24 104/137/24 103/163/24 122/159/24
f 125/164/20 126/165/20 127/166/20 128/167/20
f 129/168/20 125/169/20 128/167/20 130/170/20
f 130/170/25 128/167/26 103/163/22 102/171/25
f 95/172/20 129/168/20 130/170/20 96/127/20
f 96/127/22 130/170/25 102/171/25 98/129/22
f 100/132/23 131/173/23 132/174/23 91/133/23
f 91/122/19 132/175/27 114/176/27 92/123/19
f 131/173/23 133/177/23 134/178/23 132/174/23
f 132/175/27 134/179/28 123/162/19 114/176/27
f 133/177/23 135/180/23 136/181/23 134/178/23
f 134/179/28 136/182/18 117/183/18 123/162/19
f 128/167/26 127/166/21 122/184/21 103/163/22
f 43/57/29 46/60/30 94/125/30 93/124/29
f 86/114/30 85/113/31 136/181/31 135/180/30
f 47/61/32 43/57/29 93/124/29 97/128/33
f 85/116/31 69/115/34 117/183/35 136/182/31
f 46/60/36 45/59/36 95/126/36 94/125/36
f 39/53/37 42/56/38 90/121/39 89/120/40
f 78/100/17 77/99/41 127/166/42 126/165/17
f 42/63/38 50/66/17 99/131/17 90/130/39
f 50/66/43 49/65/43 100/132/43 99/131/43
f 69/87/34 68/86/44 118/153/44 117/152/35
f 77/99/41 72/117/45 122/184/46 127/166/42
f 75/97/36 78/100/36 126/165/36 125/164/36
f 68/86/44 59/77/47 108/142/47 118/153/44
f 59/77/47 47/76/32 97/143/33 108/142/47
f 45/105/36 79/101/48 129/168/48 95/172/36
f 62/80/49 39/88/37 89/155/40 112/147/49
f 63/81/50 62/80/49 112/147/49 111/146/50
f 79/101/48 75/103/36 125/169/36 129/168/48
f 49/65/43 82/107/43 131/173/43 100/132/43
f 82/107/43 84/111/43 133/177/43 131/173/43
f 84/111/43 86/114/43 135/180/43 133/177/43
f 72/92/45 63/81/50 111/146/50 122/159/46
f 64/82/51 55/71/51 137/185/51 138/186/51
f 67/85/52 66/84/52 139/187/52 87/118/52
f 66/84/53 73/93/53 140/188/53 139/187/53
f 61/79/30 60/78/30 141/189/30 142/190/30
f 73/93/54 64/82/54 138/186/54 140/188/54
f 60/78/55 71/91/55 143/191/55 141/189/55
f 55/71/56 56/73/56 144/192/56 137/185/56
f 51/67/57 70/89/57 145/193/57 146/194/57
f 56/73/58 61/79/58 142/190/58 144/192/58
f 70/89/59 58/75/59 147/195/59 145/193/59
f 71/91/60 52/68/60 148/196/60 143/191/60
f 58/75/61 57/74/61 88/119/61 147/195/61
f 52/68/62 51/67/62 146/194/62 148/196/62
