# Blender v2.79 (sub 0) OBJ File: ''
# www.blender.org
mtllib sink.mtl
o Cube.145_Cube.173_darck_whitr
v -0.027998 0.037433 -0.002178
v -0.027998 0.037433 -0.004607
v 0.026226 0.037433 -0.004607
v 0.026226 0.037433 0.002230
v -0.036354 -0.045808 0.006721
v 0.040484 -0.045808 0.006721
v 0.040484 -0.045808 0.008127
v -0.036354 -0.045808 0.008127
v 0.040484 0.045790 0.006721
v -0.036354 0.045790 0.006721
v -0.036354 0.045790 0.008127
v 0.040484 0.045790 0.008127
v 0.020916 -0.032141 -0.009917
v 0.020916 0.032123 -0.009917
v -0.022687 0.032123 -0.009917
v -0.022687 -0.032141 -0.009917
v -0.027998 0.037433 0.008127
v 0.026226 0.037433 0.008127
v 0.026226 -0.037452 0.008127
v -0.027998 -0.037452 0.008127
v 0.024671 0.035878 -0.008362
v -0.026442 0.035878 -0.008362
v 0.024671 -0.035896 -0.008362
v -0.026442 -0.035896 -0.008362
v 0.026226 -0.037452 0.002230
v -0.027998 -0.037452 -0.002178
v 0.026822 -0.037319 -0.004834
v -0.027402 -0.037319 -0.004834
vt 0.000000 0.000000
vt 0.000000 0.000000
vt 0.000000 0.000000
vt 0.000000 0.000000
vt 0.650598 0.720640
vt 0.650598 0.529360
vt 0.650598 0.529360
vt 0.650598 0.720640
vt 0.849402 0.529360
vt 0.849402 0.720640
vt 0.849402 0.720640
vt 0.849402 0.529360
vt 0.680261 0.563382
vt 0.819739 0.563382
vt 0.819739 0.686618
vt 0.680261 0.686618
vt 0.831265 0.699837
vt 0.831265 0.550163
vt 0.668735 0.550163
vt 0.668735 0.699837
vt 0.829577 0.552099
vt 0.829577 0.697901
vt 0.831265 0.550163
vt 0.831265 0.699837
vt 0.670423 0.552099
vt 0.670423 0.697901
vt 0.831265 0.550163
vt 0.668735 0.550163
vt 0.000000 0.000000
vt 0.000000 0.000000
vt 0.000000 0.000000
vt 0.000000 0.000000
vt 0.000000 0.000000
vt 0.000000 0.000000
vt 0.000000 0.000000
vt 0.000000 0.000000
vn 0.0000 -1.0000 0.0000
vn 0.0000 1.0000 0.0000
vn -0.0000 0.0000 1.0000
vn -1.0000 0.0000 0.0000
vn 1.0000 0.0000 0.0000
vn -0.0000 -0.3826 0.9239
vn -0.0000 -0.9239 0.3826
vn -0.3826 0.0000 0.9239
vn -0.0000 0.3826 0.9239
vn 0.3826 0.0000 0.9239
vn -0.8912 -0.0043 0.4536
vn -0.9991 -0.0039 -0.0429
vn -0.0011 0.9996 0.0272
vn -0.0000 0.9274 0.3741
vn 0.9932 0.0038 0.1165
vn 0.9452 0.0033 0.3265
usemtl darck_whitr
s 1
f 1/1/1 2/2/1 3/3/1 4/4/1
f 5/5/1 6/6/1 7/7/1 8/8/1
f 9/9/2 10/10/2 11/11/2 12/12/2
f 13/13/3 14/14/3 15/15/3 16/16/3
f 10/10/4 5/5/4 8/8/4 11/11/4
f 6/6/5 9/9/5 12/12/5 7/7/5
f 17/17/3 18/18/3 12/12/3 11/11/3
f 18/18/3 19/19/3 7/7/3 12/12/3
f 19/19/3 20/20/3 8/8/3 7/7/3
f 20/20/3 17/17/3 11/11/3 8/8/3
f 15/15/6 14/14/6 21/21/6 22/22/6
f 22/22/7 21/21/7 3/23/7 2/24/7
f 14/14/8 13/13/8 23/25/8 21/21/8
f 13/13/9 16/16/9 24/26/9 23/25/9
f 16/16/10 15/15/10 22/22/10 24/26/10
f 4/27/4 25/28/4 19/19/4 18/18/4
f 20/29/5 26/30/5 1/1/5 17/31/5
f 19/32/2 25/33/2 26/30/2 20/29/2
f 17/31/1 1/1/1 4/4/1 18/34/1
f 21/21/11 23/25/11 27/35/11 3/23/11
f 4/4/12 3/3/12 27/35/12 25/33/12
f 27/35/13 28/36/13 26/30/13 25/33/13
f 23/25/14 24/26/14 28/36/14 27/35/14
f 26/30/15 28/36/15 2/2/15 1/1/15
f 2/2/16 28/36/16 24/26/16 22/22/16
