# Blender v2.79 (sub 0) OBJ File: ''
# www.blender.org
mtllib detergent_tray.mtl
o Cube.069_Cube.114_basic_2
v 0.002490 -0.009369 0.133736
v 0.002490 0.019849 0.133764
v 0.000940 0.019976 0.133965
v 0.000942 -0.009368 0.133958
v 0.002490 -0.020346 0.124743
v 0.002490 -0.020346 0.133738
v 0.000939 -0.020346 0.133959
v -0.000386 -0.020346 0.121026
v 0.001585 -0.009368 0.099799
v 0.001587 0.019937 0.099791
v 0.002490 0.019817 0.099819
v 0.002490 -0.009368 0.099841
v -0.000906 -0.009368 0.120353
v -0.000906 0.019489 0.120353
v 0.000961 0.019489 0.100336
v 0.000961 -0.009368 0.100338
v 0.002490 -0.009199 0.124743
v 0.002490 0.019820 0.124743
v 0.002490 -0.020346 0.107080
v 0.035494 -0.009368 0.099841
v 0.035494 -0.020346 0.107080
v 0.035494 0.019817 0.099819
v 0.000915 -0.020346 0.107011
v 0.000320 -0.019822 0.107209
v -0.000906 -0.019822 0.120353
v 0.000433 -0.009368 0.133502
v 0.000433 0.019489 0.133502
v -0.000384 0.019983 0.121028
v 0.000433 -0.019822 0.133502
v 0.035494 -0.009199 0.124743
v 0.035494 0.019820 0.124743
v 0.035494 -0.020346 0.124743
v 0.005170 -0.010346 0.124743
v 0.005170 -0.017666 0.124743
v 0.005170 -0.017666 0.115382
v 0.005170 -0.010346 0.115382
v 0.032756 0.016397 0.124743
v 0.005228 0.016397 0.124743
v 0.005228 0.016397 0.115382
v 0.032756 0.016397 0.115382
v 0.032814 -0.010346 0.124743
v 0.032814 -0.017666 0.124743
v 0.005228 -0.007733 0.124743
v 0.032756 -0.007733 0.124743
v 0.005228 -0.007733 0.115382
v 0.032756 -0.007733 0.115382
v 0.032814 -0.017666 0.115382
v 0.032814 -0.010346 0.115382
vt 0.000000 0.000000
vt 0.000000 0.000000
vt 0.000000 0.000000
vt 0.000000 0.000000
vt 0.000000 0.000000
vt 0.000000 0.000000
vt 0.000000 0.000000
vt 0.000000 0.000000
vt 0.000000 0.000000
vt 0.000000 0.000000
vt 0.000000 0.000000
vt 0.000000 0.000000
vt 0.000000 0.000000
vt 0.000000 0.000000
vt 0.000000 0.000000
vt 0.000000 0.000000
vt 0.000000 0.000000
vt 0.000000 0.000000
vt 0.000000 0.000000
vt 0.000000 0.000000
vt 0.000000 0.000000
vt 0.000000 0.000000
vt 0.000000 0.000000
vt 0.000000 0.000000
vt 0.000000 0.000000
vt 0.000000 0.000000
vt 0.000000 0.000000
vt 0.000000 0.000000
vt 0.000000 0.000000
vt 0.000000 0.000000
vt 0.000000 0.000000
vt 0.000000 0.000000
vt 0.000000 0.000000
vt 0.000000 0.000000
vt 0.000000 0.000000
vt 0.000000 0.000000
vt 0.000000 0.000000
vt 0.000000 0.000000
vt 0.000000 0.000000
vt 0.000000 0.000000
vt 0.000000 0.000000
vt 0.000000 0.000000
vt 0.000000 0.000000
vt 0.000000 0.000000
vt 0.000000 0.000000
vt 0.000000 0.000000
vt 0.000000 0.000000
vt 0.000000 0.000000
vn 0.1384 -0.0002 0.9904
vn 0.1353 -0.0006 0.9908
vn 0.0000 -1.0000 0.0000
vn 0.0387 -0.0005 -0.9993
vn -0.9957 0.0000 -0.0929
vn 1.0000 0.0000 0.0000
vn 0.0000 -0.5505 -0.8348
vn 0.0000 -0.0008 -1.0000
vn -0.9949 0.0000 0.1013
vn 0.1415 0.0001 0.9899
vn 0.0727 0.9974 0.0020
vn 0.0705 0.9975 -0.0037
vn 0.0723 0.9974 0.0004
vn 0.0695 0.9976 -0.0052
vn 0.0000 1.0000 -0.0001
vn 0.0000 0.0000 1.0000
vn -1.0000 0.0000 0.0000
vn 0.0000 1.0000 0.0000
vn -0.5947 -0.4158 -0.6881
vn -0.6693 -0.7403 -0.0623
vn -0.7301 0.6792 0.0747
vn -0.6688 -0.0000 0.7435
vn -0.6703 -0.0001 0.7421
vn -0.6689 0.0000 0.7434
vn -0.6687 0.0001 0.7435
vn -0.6292 0.7750 -0.0594
vn -0.7526 -0.6539 0.0769
vn -0.6551 -0.0001 -0.7555
vn 0.0373 -0.5502 -0.8342
usemtl basic_2
s 1
f 1/1/1 2/2/2 3/3/2 4/4/1
f 5/5/3 6/6/3 7/7/3 8/8/3
f 9/9/4 10/10/4 11/11/4 12/12/4
f 13/13/5 14/14/5 15/15/5 16/16/5
f 1/1/6 17/17/6 18/18/6 2/2/6
f 17/17/6 1/1/6 6/6/6 5/5/6
f 19/19/7 12/12/7 20/20/7 21/21/7
f 12/12/8 11/11/8 22/22/8 20/20/8
f 19/19/3 5/5/3 8/8/3 23/23/3
f 16/16/5 24/24/5 25/25/5 13/13/5
f 26/26/9 27/27/9 14/14/9 13/13/9
f 6/6/10 1/1/1 4/4/1 7/7/10
f 10/10/11 28/28/12 18/18/13 11/11/11
f 28/28/12 3/3/14 2/2/14 18/18/13
f 13/13/9 25/25/9 29/29/9 26/26/9
f 30/30/6 20/20/6 22/22/6 31/31/6
f 20/20/6 30/30/6 32/32/6 21/21/6
f 33/33/6 34/34/6 35/35/6 36/36/6
f 11/11/15 18/18/15 31/31/15 22/22/15
f 37/37/3 38/38/3 39/39/3 40/40/3
f 5/5/3 19/19/3 21/21/3 32/32/3
f 34/34/16 33/33/16 17/17/16 5/5/16
f 41/41/16 42/42/16 32/32/16 30/30/16
f 33/33/16 41/41/16 30/30/16 17/17/16
f 42/42/16 34/34/16 5/5/16 32/32/16
f 43/43/16 38/38/16 18/18/16 17/17/16
f 37/37/16 44/44/16 30/30/16 31/31/16
f 44/44/16 43/43/16 17/17/16 30/30/16
f 38/38/16 37/37/16 31/31/16 18/18/16
f 39/39/16 45/45/16 46/46/16 40/40/16
f 36/36/16 35/35/16 47/47/16 48/48/16
f 44/44/17 37/37/17 40/40/17 46/46/17
f 34/34/18 42/42/18 47/47/18 35/35/18
f 42/42/17 41/41/17 48/48/17 47/47/17
f 43/43/18 44/44/18 46/46/18 45/45/18
f 38/38/6 43/43/6 45/45/6 39/39/6
f 41/41/3 33/33/3 36/36/3 48/48/3
f 24/24/19 16/16/19 9/9/19 23/23/19
f 25/25/20 24/24/20 23/23/20 8/8/20
f 3/3/21 28/28/21 14/14/21 27/27/21
f 4/4/22 3/3/23 27/27/23 26/26/24
f 7/7/25 4/4/22 26/26/24 29/29/25
f 28/28/26 10/10/26 15/15/26 14/14/26
f 8/8/27 7/7/27 29/29/27 25/25/27
f 10/10/28 9/9/28 16/16/28 15/15/28
f 23/23/29 9/9/29 12/12/29 19/19/29
