# Blender v2.79 (sub 0) OBJ File: ''
# www.blender.org
mtllib door.mtl
o Cube.087_Cube.115_glosi
v 0.000382 -0.024542 0.096723
v 0.000382 -0.017232 0.091903
v 0.001619 -0.019969 0.089162
v 0.001619 -0.026003 0.093141
v 0.000382 -0.048586 0.091903
v 0.000382 -0.041276 0.096706
v 0.001619 -0.039815 0.093127
v 0.001619 -0.045849 0.089162
v 0.000382 -0.053390 0.084690
v 0.001619 -0.049814 0.083209
v 0.000381 -0.055077 0.076233
v 0.001619 -0.051206 0.076229
v 0.000381 -0.053390 0.067580
v 0.001619 -0.049814 0.069087
v 0.000381 -0.048586 0.060563
v 0.001619 -0.045849 0.063295
v 0.000382 -0.032909 0.098393
v 0.001619 -0.032909 0.094519
v 0.000381 -0.041529 0.055759
v 0.001619 -0.040024 0.059330
v 0.000381 -0.024289 0.055759
v 0.000382 -0.032909 0.054072
v 0.001619 -0.032909 0.057938
v 0.001619 -0.025794 0.059330
v 0.000381 -0.017232 0.060563
v 0.001619 -0.019969 0.063295
v 0.000381 -0.012428 0.067580
v 0.001619 -0.016004 0.069087
v 0.000381 -0.010741 0.076233
v 0.001619 -0.014612 0.076229
v 0.000382 -0.012428 0.084690
v 0.001619 -0.016004 0.083209
v 0.004598 -0.032909 0.068482
v 0.004598 -0.027476 0.070726
v 0.004598 -0.038342 0.070726
v 0.004598 -0.027495 0.081651
v 0.004598 -0.032909 0.083877
v 0.004598 -0.038323 0.081651
v 0.005413 -0.032909 0.076219
v 0.004598 -0.040607 0.076246
v 0.004598 -0.025211 0.076246
v -0.001292 -0.024264 0.097405
v -0.001292 -0.016710 0.092425
v -0.001292 -0.032909 0.053336
v -0.001292 -0.041816 0.055079
v -0.001292 -0.049108 0.060042
v -0.001292 -0.054072 0.067292
v -0.001292 -0.055815 0.076234
v -0.001292 -0.054072 0.084973
v -0.001292 -0.049108 0.092425
v -0.001292 -0.024002 0.055079
v -0.001292 -0.016710 0.060042
v -0.001292 -0.011746 0.067292
v -0.001292 -0.010003 0.076234
v -0.001292 -0.011746 0.084973
v -0.001292 -0.032909 0.099131
v -0.001292 -0.041554 0.097388
vt 0.000000 0.000000
vt 1.000000 0.000000
vt 1.000000 1.000000
vt 0.000000 1.000000
vt 0.000000 0.000000
vt 1.000000 0.000000
vt 1.000000 1.000000
vt 0.000000 1.000000
vt 0.000000 0.000000
vt 1.000000 0.000000
vt 1.000000 1.000000
vt 0.000000 1.000000
vt 0.000000 0.000000
vt 1.000000 0.000000
vt 1.000000 1.000000
vt 0.000000 1.000000
vt 0.000000 0.000000
vt 1.000000 0.000000
vt 1.000000 1.000000
vt 0.000000 1.000000
vt 0.000000 0.000000
vt 1.000000 0.000000
vt 1.000000 1.000000
vt 0.000000 1.000000
vt 0.000000 0.000000
vt 1.000000 0.000000
vt 1.000000 1.000000
vt 0.000000 1.000000
vt 0.000000 0.000000
vt 1.000000 0.000000
vt 1.000000 1.000000
vt 0.000000 1.000000
vt 0.000000 0.000000
vt 1.000000 0.000000
vt 1.000000 1.000000
vt 0.000000 1.000000
vt 0.000000 0.000000
vt 1.000000 0.000000
vt 1.000000 1.000000
vt 0.000000 1.000000
vt 0.000000 0.000000
vt 1.000000 0.000000
vt 1.000000 1.000000
vt 0.000000 1.000000
vt 0.000000 0.000000
vt 1.000000 0.000000
vt 1.000000 1.000000
vt 0.000000 1.000000
vt 0.000000 0.000000
vt 1.000000 0.000000
vt 1.000000 1.000000
vt 0.000000 1.000000
vt 0.000000 0.000000
vt 1.000000 0.000000
vt 1.000000 1.000000
vt 0.000000 1.000000
vt 0.000000 0.000000
vt 1.000000 0.000000
vt 1.000000 1.000000
vt 0.000000 1.000000
vt 0.000000 0.000000
vt 1.000000 0.000000
vt 1.000000 1.000000
vt 0.000000 1.000000
vt 0.000000 0.000000
vt 1.000000 0.000000
vt 1.000000 1.000000
vt 0.000000 0.000000
vt 1.000000 0.000000
vt 1.000000 1.000000
vt 0.000000 0.000000
vt 1.000000 0.000000
vt 0.000000 0.000000
vt 1.000000 0.000000
vt 0.000000 0.000000
vt 1.000000 0.000000
vt 1.000000 1.000000
vt 0.000000 1.000000
vt 0.000000 0.000000
vt 1.000000 0.000000
vt 1.000000 1.000000
vt 0.000000 1.000000
vt 0.000000 0.000000
vt 1.000000 0.000000
vt 1.000000 1.000000
vt 0.000000 0.000000
vt 1.000000 1.000000
vt 0.000000 1.000000
vt 0.000000 0.000000
vt 1.000000 1.000000
vt 0.000000 1.000000
vt 0.000000 0.000000
vt 1.000000 0.000000
vt 0.000000 0.000000
vt 1.000000 1.000000
vt 0.000000 0.000000
vt 0.000000 0.000000
vt 1.000000 0.000000
vt 0.000000 0.000000
vt 1.000000 0.000000
vt 1.000000 1.000000
vt 0.000000 0.000000
vt 1.000000 0.000000
vt 0.000000 0.000000
vt 0.000000 0.000000
vt 1.000000 0.000000
vt 1.000000 1.000000
vt 0.000000 1.000000
vt 0.000000 0.000000
vt 1.000000 0.000000
vt 1.000000 1.000000
vt 0.000000 1.000000
vt 0.000000 0.000000
vt 1.000000 0.000000
vt 1.000000 1.000000
vt 0.000000 1.000000
vt 0.000000 0.000000
vt 1.000000 0.000000
vt 1.000000 1.000000
vt 0.000000 1.000000
vt 0.000000 0.000000
vt 1.000000 0.000000
vt 1.000000 1.000000
vt 0.000000 1.000000
vt 0.000000 0.000000
vt 1.000000 0.000000
vt 1.000000 1.000000
vt 0.000000 1.000000
vt 0.000000 0.000000
vt 1.000000 0.000000
vt 1.000000 1.000000
vt 0.000000 1.000000
vt 0.000000 0.000000
vt 1.000000 0.000000
vt 1.000000 1.000000
vt 0.000000 1.000000
vt 0.000000 0.000000
vt 1.000000 0.000000
vt 1.000000 1.000000
vt 0.000000 1.000000
vt 0.000000 0.000000
vt 1.000000 0.000000
vt 1.000000 1.000000
vt 0.000000 1.000000
vt 0.000000 0.000000
vt 1.000000 0.000000
vt 1.000000 1.000000
vt 0.000000 1.000000
vt 0.000000 0.000000
vt 1.000000 0.000000
vt 1.000000 1.000000
vt 0.000000 1.000000
vt 0.000000 0.000000
vt 1.000000 0.000000
vt 1.000000 1.000000
vt 0.000000 1.000000
vt 0.000000 0.000000
vt 1.000000 0.000000
vt 1.000000 1.000000
vt 0.000000 1.000000
vt 0.000000 0.000000
vt 1.000000 0.000000
vt 1.000000 1.000000
vt 0.000000 1.000000
vt 0.000000 0.000000
vt 1.000000 0.000000
vt 1.000000 1.000000
vt 0.000000 1.000000
vn -0.9508 -0.1706 -0.2587
vn -0.9507 0.1702 -0.2591
vn -0.9508 0.2578 -0.1717
vn -0.9508 0.3039 -0.0606
vn -0.9508 0.3042 0.0593
vn -0.9509 0.2555 0.1749
vn -0.9509 -0.0606 -0.3036
vn -0.9508 0.1744 0.2561
vn -0.9507 -0.0596 0.3043
vn -0.9509 -0.1740 0.2558
vn -0.9509 -0.2555 0.1749
vn -0.9508 -0.3042 0.0593
vn -0.9508 -0.3039 -0.0606
vn -0.9508 0.0612 -0.3036
vn -0.9507 0.0596 0.3043
vn -0.9508 -0.2578 -0.1717
vn -0.9638 -0.0742 0.2560
vn -0.9638 0.0742 0.2560
vn -0.9642 -0.0745 -0.2545
vn -0.9641 0.0748 -0.2547
vn -0.9944 0.0744 -0.0750
vn -0.9944 -0.0744 -0.0750
vn -0.9640 -0.2547 -0.0756
vn -0.9945 -0.0745 0.0739
vn -0.9945 0.0745 0.0739
vn -0.9642 -0.2548 0.0736
vn -0.9642 0.2548 0.0736
vn -0.9640 0.2547 -0.0756
vn -0.9629 0.1900 -0.1915
vn -0.9629 -0.1901 -0.1914
vn -0.9625 -0.1916 0.1923
vn -0.9625 0.1916 0.1923
vn -0.3964 -0.5053 -0.7665
vn -0.3963 0.1764 0.9010
vn -0.3972 0.5164 0.7587
vn -0.3973 0.7573 0.5184
vn -0.3973 0.9007 0.1756
vn -0.3971 0.9001 -0.1795
vn -0.3966 0.7640 -0.5089
vn -0.3963 -0.1764 0.9010
vn -0.3972 -0.5164 0.7587
vn -0.3971 -0.7573 0.5184
vn -0.3970 -0.9009 0.1756
vn -0.3971 -0.9001 -0.1795
vn -0.3972 -0.1797 -0.8999
vn -0.3967 0.1814 -0.8998
vn -0.3964 0.5041 -0.7673
vn -0.3970 -0.7639 -0.5088
usemtl glosi
s 1
f 1/1/1 2/2/1 3/3/1 4/4/1
f 5/5/2 6/6/2 7/7/2 8/8/2
f 9/9/3 5/10/3 8/11/3 10/12/3
f 11/13/4 9/14/4 10/15/4 12/16/4
f 13/17/5 11/18/5 12/19/5 14/20/5
f 15/21/6 13/22/6 14/23/6 16/24/6
f 17/25/7 1/26/7 4/27/7 18/28/7
f 19/29/8 15/30/8 16/31/8 20/32/8
f 21/33/9 22/34/9 23/35/9 24/36/9
f 25/37/10 21/38/10 24/39/10 26/40/10
f 27/41/11 25/42/11 26/43/11 28/44/11
f 29/45/12 27/46/12 28/47/12 30/48/12
f 31/49/13 29/50/13 30/51/13 32/52/13
f 6/53/14 17/54/14 18/55/14 7/56/14
f 22/57/15 19/58/15 20/59/15 23/60/15
f 2/61/16 31/62/16 32/63/16 3/64/16
f 23/65/17 33/66/17 34/67/17 24/36/17
f 20/68/18 35/69/18 33/70/18 23/60/18
f 36/71/19 37/72/19 18/55/19 4/4/19
f 37/73/20 38/74/20 7/7/20 18/28/20
f 39/75/21 40/76/21 38/77/21 37/78/21
f 41/79/22 39/80/22 37/81/22 36/82/22
f 32/83/23 30/84/23 41/85/23 36/82/23
f 34/86/24 33/66/24 39/87/24 41/88/24
f 33/89/25 35/69/25 40/90/25 39/91/25
f 30/92/26 28/93/26 34/67/26 41/88/26
f 12/94/27 40/76/27 35/95/27 14/20/27
f 10/96/28 38/74/28 40/90/28 12/16/28
f 8/97/29 7/98/29 38/77/29 10/12/29
f 3/99/30 32/100/30 36/101/30 4/4/30
f 24/102/31 34/103/31 28/47/31 26/40/31
f 14/104/32 35/69/32 20/59/32 16/24/32
f 42/105/33 43/106/33 2/107/33 1/108/33
f 44/109/34 45/110/34 19/111/34 22/112/34
f 45/113/35 46/114/35 15/115/35 19/116/35
f 46/117/36 47/118/36 13/119/36 15/120/36
f 47/121/37 48/122/37 11/123/37 13/124/37
f 48/125/38 49/126/38 9/127/38 11/128/38
f 49/129/39 50/130/39 5/131/39 9/132/39
f 51/133/40 44/134/40 22/135/40 21/136/40
f 52/137/41 51/138/41 21/139/41 25/140/41
f 53/141/42 52/142/42 25/143/42 27/144/42
f 54/145/43 53/146/43 27/147/43 29/148/43
f 55/149/44 54/150/44 29/151/44 31/152/44
f 56/153/45 42/154/45 1/155/45 17/156/45
f 57/157/46 56/158/46 17/159/46 6/160/46
f 50/161/47 57/162/47 6/163/47 5/164/47
f 43/165/48 55/166/48 31/167/48 2/168/48
o Cube.087_Cube.115_basic_2
v -0.002730 -0.032909 0.044129
v -0.002730 -0.045401 0.046573
v -0.002730 -0.042106 0.054389
v -0.002730 -0.032909 0.052589
v -0.002730 -0.020784 0.105937
v -0.002730 -0.010189 0.098952
v -0.002730 -0.016181 0.092954
v -0.002730 -0.023982 0.098097
v -0.002730 -0.032909 0.108358
v -0.002730 -0.032909 0.099880
v -0.002730 -0.045034 0.105913
v -0.002730 -0.041836 0.098080
v -0.002730 -0.003228 0.088500
v -0.002730 -0.011056 0.085259
v -0.002730 -0.055629 0.098952
v -0.002730 -0.049637 0.092954
v -0.002730 -0.055629 0.053535
v -0.002730 -0.049637 0.059515
v 0.000146 -0.020784 0.105937
v 0.000146 -0.023323 0.099713
v 0.000146 -0.014946 0.094190
v 0.000146 -0.010189 0.098952
v -0.002730 -0.062590 0.063703
v -0.002730 -0.054762 0.067001
v -0.003285 -0.055646 0.085017
v -0.002730 -0.054762 0.085259
v -0.002730 -0.052996 0.079945
v -0.003706 -0.053459 0.079945
v -0.003706 -0.061512 0.065932
v -0.003240 -0.055574 0.067223
v -0.002730 -0.062590 0.088500
v -0.002730 -0.020417 0.046573
v -0.002730 -0.023712 0.054389
v -0.002730 -0.010189 0.053535
v -0.002730 -0.016181 0.059515
v -0.002730 -0.003228 0.063703
v -0.002730 -0.011056 0.067001
v -0.002730 -0.000783 0.076243
v -0.002730 -0.009256 0.076234
v 0.000146 -0.045401 0.046573
v 0.000146 -0.042785 0.052778
v 0.000146 -0.050872 0.058282
v 0.000146 -0.055629 0.053535
v 0.000146 -0.003228 0.063703
v 0.000146 -0.009442 0.066322
v 0.000146 -0.014946 0.058282
v 0.000146 -0.010189 0.053535
v 0.000146 -0.032909 0.108358
v 0.000146 -0.032909 0.101627
v 0.000146 -0.009442 0.085927
v 0.000146 -0.003228 0.088500
v 0.000146 -0.023033 0.052778
v 0.000146 -0.020417 0.046573
v 0.000146 -0.032909 0.050845
v 0.000146 -0.032909 0.044129
v 0.000146 -0.055629 0.098952
v 0.000146 -0.050872 0.094190
v 0.000146 -0.042495 0.099694
v 0.000146 -0.045034 0.105913
v 0.000146 -0.062590 0.088500
v 0.000146 -0.056376 0.085927
v 0.000146 -0.065035 0.076243
v 0.000146 -0.058309 0.076236
v 0.000146 -0.062590 0.063703
v 0.000146 -0.056376 0.066322
v 0.000146 -0.007509 0.076236
v 0.000146 -0.000783 0.076243
v -0.001292 -0.020502 0.106629
v -0.001292 -0.009661 0.099481
v -0.001292 -0.032909 0.043382
v -0.001292 -0.045691 0.045883
v -0.001292 -0.056157 0.053007
v -0.001292 -0.063281 0.063412
v -0.001292 -0.065782 0.076244
v -0.002730 -0.065035 0.076243
v -0.001292 -0.063281 0.088786
v -0.001292 -0.056157 0.099481
v -0.001292 -0.020127 0.045883
v -0.001292 -0.009661 0.053007
v -0.001292 -0.002537 0.063412
v -0.001292 -0.000036 0.076244
v -0.001292 -0.002537 0.088786
v -0.001292 -0.032909 0.109106
v -0.001292 -0.045316 0.106605
v -0.001292 -0.016710 0.092425
v -0.001292 -0.024264 0.097405
v -0.001292 -0.041816 0.055079
v -0.001292 -0.032909 0.053336
v -0.001292 -0.049108 0.060042
v -0.001292 -0.054072 0.067292
v -0.002730 -0.056562 0.076234
v -0.001292 -0.055815 0.076234
v -0.001292 -0.054072 0.084973
v -0.001292 -0.049108 0.092425
v -0.001292 -0.024002 0.055079
v -0.001292 -0.016710 0.060042
v -0.001292 -0.011746 0.067292
v -0.001292 -0.010003 0.076234
v -0.001292 -0.011746 0.084973
v -0.001292 -0.032909 0.099131
v -0.001292 -0.041554 0.097388
v -0.003706 -0.063134 0.076243
v -0.003706 -0.057511 0.076234
v -0.003706 -0.061512 0.086271
v -0.003706 -0.053459 0.076194
v -0.002730 -0.052996 0.076194
v -0.002730 -0.052996 0.072356
v -0.003706 -0.053459 0.072356
vt 0.000000 0.000000
vt 1.000000 0.000000
vt 1.000000 1.000000
vt 0.000000 1.000000
vt 0.000000 0.000000
vt 1.000000 0.000000
vt 1.000000 1.000000
vt 0.000000 1.000000
vt 0.000000 0.000000
vt 1.000000 0.000000
vt 1.000000 1.000000
vt 0.000000 1.000000
vt 0.000000 0.000000
vt 1.000000 0.000000
vt 1.000000 1.000000
vt 0.000000 1.000000
vt 0.000000 0.000000
vt 1.000000 0.000000
vt 1.000000 1.000000
vt 0.000000 1.000000
vt 0.000000 0.000000
vt 1.000000 0.000000
vt 1.000000 1.000000
vt 0.000000 1.000000
vt 0.000000 0.000000
vt 1.000000 0.000000
vt 1.000000 1.000000
vt 0.000000 1.000000
vt 0.000000 0.000000
vt 1.000000 0.000000
vt 1.000000 1.000000
vt 0.000000 1.000000
vt 0.000000 0.000000
vt 1.000000 0.000000
vt 1.000000 1.000000
vt 0.000000 1.000000
vt 0.000000 0.000000
vt 1.000000 0.000000
vt 1.000000 1.000000
vt 0.000000 1.000000
vt 0.000000 0.000000
vt 1.000000 1.000000
vt 0.000000 1.000000
vt 0.000000 0.000000
vt 1.000000 0.000000
vt 1.000000 1.000000
vt 0.000000 1.000000
vt 0.000000 0.000000
vt 1.000000 0.000000
vt 1.000000 1.000000
vt 0.000000 1.000000
vt 0.000000 0.000000
vt 1.000000 0.000000
vt 1.000000 1.000000
vt 0.000000 1.000000
vt 0.000000 0.000000
vt 1.000000 0.000000
vt 1.000000 1.000000
vt 0.000000 1.000000
vt 0.000000 0.000000
vt 1.000000 0.000000
vt 1.000000 1.000000
vt 0.000000 1.000000
vt 0.000000 0.000000
vt 1.000000 0.000000
vt 1.000000 1.000000
vt 0.000000 1.000000
vt 0.000000 0.000000
vt 1.000000 0.000000
vt 1.000000 1.000000
vt 0.000000 1.000000
vt 0.000000 0.000000
vt 1.000000 0.000000
vt 1.000000 1.000000
vt 0.000000 1.000000
vt 0.000000 0.000000
vt 1.000000 0.000000
vt 1.000000 1.000000
vt 0.000000 1.000000
vt 0.000000 0.000000
vt 1.000000 0.000000
vt 1.000000 1.000000
vt 0.000000 1.000000
vt 0.000000 0.000000
vt 1.000000 0.000000
vt 1.000000 1.000000
vt 0.000000 1.000000
vt 0.000000 0.000000
vt 1.000000 0.000000
vt 1.000000 1.000000
vt 0.000000 1.000000
vt 0.000000 0.000000
vt 1.000000 0.000000
vt 1.000000 1.000000
vt 0.000000 1.000000
vt 0.000000 0.000000
vt 1.000000 0.000000
vt 1.000000 1.000000
vt 0.000000 1.000000
vt 0.000000 0.000000
vt 1.000000 0.000000
vt 1.000000 1.000000
vt 0.000000 1.000000
vt 0.000000 0.000000
vt 1.000000 0.000000
vt 1.000000 1.000000
vt 0.000000 1.000000
vt 0.000000 0.000000
vt 1.000000 0.000000
vt 1.000000 1.000000
vt 0.000000 1.000000
vt 0.000000 0.000000
vt 1.000000 0.000000
vt 1.000000 1.000000
vt 0.000000 1.000000
vt 0.000000 0.000000
vt 1.000000 0.000000
vt 1.000000 1.000000
vt 0.000000 1.000000
vt 0.000000 0.000000
vt 1.000000 0.000000
vt 1.000000 1.000000
vt 0.000000 1.000000
vt 0.000000 0.000000
vt 1.000000 0.000000
vt 1.000000 1.000000
vt 0.000000 1.000000
vt 0.000000 0.000000
vt 1.000000 0.000000
vt 1.000000 1.000000
vt 0.000000 1.000000
vt 0.000000 0.000000
vt 1.000000 0.000000
vt 1.000000 1.000000
vt 0.000000 1.000000
vt 0.000000 0.000000
vt 1.000000 0.000000
vt 1.000000 1.000000
vt 0.000000 1.000000
vt 0.000000 0.000000
vt 1.000000 0.000000
vt 1.000000 1.000000
vt 0.000000 1.000000
vt 0.000000 0.000000
vt 1.000000 0.000000
vt 1.000000 1.000000
vt 0.000000 1.000000
vt 0.000000 0.000000
vt 1.000000 0.000000
vt 1.000000 1.000000
vt 0.000000 1.000000
vt 0.000000 0.000000
vt 1.000000 0.000000
vt 1.000000 1.000000
vt 0.000000 1.000000
vt 0.000000 0.000000
vt 1.000000 0.000000
vt 1.000000 1.000000
vt 0.000000 1.000000
vt 0.000000 0.000000
vt 1.000000 0.000000
vt 1.000000 1.000000
vt 0.000000 1.000000
vt 0.000000 0.000000
vt 1.000000 0.000000
vt 1.000000 1.000000
vt 0.000000 1.000000
vt 0.000000 0.000000
vt 1.000000 0.000000
vt 1.000000 1.000000
vt 0.000000 1.000000
vt 0.000000 0.000000
vt 1.000000 0.000000
vt 1.000000 1.000000
vt 0.000000 1.000000
vt 0.000000 0.000000
vt 1.000000 0.000000
vt 1.000000 1.000000
vt 0.000000 1.000000
vt 0.000000 0.000000
vt 1.000000 0.000000
vt 1.000000 1.000000
vt 0.000000 1.000000
vt 0.000000 0.000000
vt 1.000000 0.000000
vt 1.000000 1.000000
vt 0.000000 1.000000
vt 0.000000 0.000000
vt 1.000000 0.000000
vt 1.000000 1.000000
vt 0.000000 1.000000
vt 0.000000 0.000000
vt 1.000000 0.000000
vt 1.000000 1.000000
vt 0.000000 1.000000
vt 0.000000 0.000000
vt 1.000000 0.000000
vt 1.000000 1.000000
vt 0.000000 1.000000
vt 0.000000 0.000000
vt 1.000000 0.000000
vt 1.000000 1.000000
vt 0.000000 1.000000
vt 0.000000 0.000000
vt 1.000000 0.000000
vt 1.000000 1.000000
vt 0.000000 1.000000
vt 1.000000 0.000000
vt 1.000000 1.000000
vt 0.000000 1.000000
vt 0.000000 0.000000
vt 1.000000 1.000000
vt 0.000000 1.000000
vt 0.000000 0.000000
vt 1.000000 0.000000
vt 1.000000 1.000000
vt 0.000000 1.000000
vt 0.000000 0.000000
vt 1.000000 0.000000
vt 1.000000 1.000000
vt 0.000000 1.000000
vt 0.000000 0.000000
vt 1.000000 0.000000
vt 1.000000 1.000000
vt 0.000000 1.000000
vt 0.000000 0.000000
vt 1.000000 0.000000
vt 1.000000 1.000000
vt 0.000000 1.000000
vt 0.000000 0.000000
vt 1.000000 0.000000
vt 1.000000 1.000000
vt 0.000000 1.000000
vt 0.000000 0.000000
vt 1.000000 0.000000
vt 1.000000 1.000000
vt 0.000000 1.000000
vt 0.000000 0.000000
vt 1.000000 0.000000
vt 1.000000 1.000000
vt 0.000000 1.000000
vt 0.000000 0.000000
vt 1.000000 0.000000
vt 1.000000 1.000000
vt 0.000000 1.000000
vt 0.000000 0.000000
vt 1.000000 0.000000
vt 1.000000 1.000000
vt 0.000000 1.000000
vt 0.000000 0.000000
vt 1.000000 0.000000
vt 1.000000 1.000000
vt 0.000000 1.000000
vt 1.000000 0.000000
vt 1.000000 1.000000
vt 0.000000 1.000000
vt 1.000000 0.000000
vt 1.000000 1.000000
vt 0.000000 1.000000
vt 1.000000 0.000000
vt 1.000000 1.000000
vt 0.000000 1.000000
vt 1.000000 0.000000
vt 1.000000 1.000000
vt 0.000000 1.000000
vt 1.000000 0.000000
vt 1.000000 1.000000
vt 0.000000 1.000000
vt 1.000000 0.000000
vt 1.000000 1.000000
vt 0.000000 1.000000
vt 1.000000 0.000000
vt 1.000000 1.000000
vt 0.000000 1.000000
vt 1.000000 0.000000
vt 1.000000 1.000000
vt 0.000000 1.000000
vt 1.000000 0.000000
vt 1.000000 1.000000
vt 0.000000 1.000000
vt 1.000000 0.000000
vt 1.000000 1.000000
vt 0.000000 1.000000
vt 1.000000 0.000000
vt 1.000000 1.000000
vt 0.000000 1.000000
vt 1.000000 0.000000
vt 1.000000 1.000000
vt 0.000000 1.000000
vt 1.000000 0.000000
vt 1.000000 1.000000
vt 0.000000 1.000000
vt 1.000000 0.000000
vt 1.000000 1.000000
vt 0.000000 1.000000
vt 1.000000 0.000000
vt 1.000000 1.000000
vt 0.000000 1.000000
vt 1.000000 0.000000
vt 1.000000 1.000000
vt 0.000000 1.000000
vt 0.000000 0.000000
vt 1.000000 0.000000
vt 1.000000 1.000000
vt 0.000000 0.000000
vt 1.000000 0.000000
vt 1.000000 1.000000
vt 0.000000 1.000000
vt 0.000000 0.000000
vt 1.000000 0.000000
vt 1.000000 1.000000
vt 0.000000 1.000000
vt 0.000000 0.000000
vt 1.000000 0.000000
vt 1.000000 1.000000
vt 0.000000 1.000000
vt 0.000000 0.000000
vt 1.000000 0.000000
vt 1.000000 1.000000
vt 0.000000 1.000000
vt 0.000000 1.000000
vt 0.000000 0.000000
vt 1.000000 0.000000
vt 1.000000 1.000000
vt 0.000000 0.000000
vt 1.000000 0.000000
vt 1.000000 1.000000
vt 1.000000 1.000000
vt 0.000000 1.000000
vt 1.000000 1.000000
vt 0.000000 1.000000
vt 0.000000 0.000000
vt 1.000000 0.000000
vt 0.000000 1.000000
vt 1.000000 0.000000
vt 0.000000 1.000000
vn -1.0000 0.0000 -0.0000
vn 1.0000 0.0000 0.0000
vn -0.6575 0.6950 0.2912
vn -0.8275 0.2026 -0.5237
vn -0.4543 0.4904 0.7438
vn -0.4541 -0.1711 -0.8744
vn -0.4544 -0.5012 -0.7364
vn -0.4548 -0.7349 -0.5031
vn -0.4544 -0.8744 -0.1704
vn -0.4542 -0.8737 0.1742
vn -0.4542 -0.7415 0.4939
vn -0.4541 0.1711 -0.8744
vn -0.4544 0.5012 -0.7364
vn -0.4548 0.7349 -0.5031
vn -0.4544 0.8744 -0.1704
vn -0.4542 0.8737 0.1742
vn -0.4545 0.1744 0.8735
vn -0.4545 -0.1760 0.8732
vn -0.4539 -0.4893 0.7447
vn -0.4542 0.7415 0.4939
vn -0.4541 -0.4904 -0.7439
vn -0.4541 0.1711 0.8744
vn -0.4544 0.5012 0.7364
vn -0.4546 0.7349 0.5032
vn -0.4545 0.8743 0.1704
vn -0.4539 0.8738 -0.1743
vn -0.4542 0.7415 -0.4939
vn -0.4541 -0.1711 0.8744
vn -0.4544 -0.5012 0.7364
vn -0.4546 -0.7349 0.5032
vn -0.4542 -0.8745 0.1705
vn -0.4539 -0.8738 -0.1743
vn -0.4547 -0.1744 -0.8734
vn -0.4547 0.1760 -0.8731
vn -0.4541 0.4892 -0.7446
vn -0.4542 -0.7415 -0.4939
vn 0.4540 0.4905 0.7439
vn 0.4541 -0.1711 -0.8744
vn 0.4544 -0.5012 -0.7364
vn 0.4548 -0.7349 -0.5031
vn 0.4544 -0.8744 -0.1704
vn 0.4542 -0.8737 0.1742
vn 0.4542 -0.7415 0.4939
vn 0.4537 0.1711 -0.8746
vn 0.4544 0.5012 -0.7364
vn 0.4548 0.7349 -0.5031
vn 0.4544 0.8744 -0.1704
vn 0.4542 0.8737 0.1742
vn 0.4545 0.1744 0.8735
vn 0.4545 -0.1760 0.8732
vn 0.4539 -0.4893 0.7447
vn 0.4542 0.7415 0.4939
vn -0.9990 0.0421 -0.0163
vn -0.9992 0.0383 0.0153
vn -0.8623 -0.4986 -0.0887
vn -0.9986 -0.0356 0.0388
vn -0.8628 -0.4974 0.0908
vn -0.8261 0.1985 0.5274
vn -0.4291 0.9032 -0.0000
vn -0.4290 0.9033 -0.0000
vn -0.9983 -0.0405 -0.0423
vn -0.6478 0.7046 -0.2895
usemtl basic_2
s 1
f 58/169/49 59/170/49 60/171/49 61/172/49
f 62/173/49 63/174/49 64/175/49 65/176/49
f 66/177/49 62/178/49 65/179/49 67/180/49
f 68/181/49 66/182/49 67/183/49 69/184/49
f 63/185/49 70/186/49 71/187/49 64/188/49
f 72/189/49 68/190/49 69/191/49 73/192/49
f 59/193/49 74/194/49 75/195/49 60/196/49
f 76/197/50 77/198/50 78/199/50 79/200/50
f 74/201/49 80/202/49 81/203/49 75/204/49
f 82/205/51 83/206/51 84/207/51 85/208/51
f 81/209/52 80/202/52 86/210/52 87/211/52
f 88/212/49 72/213/49 73/214/49 83/215/49
f 89/216/49 58/217/49 61/218/49 90/219/49
f 91/220/49 89/221/49 90/222/49 92/223/49
f 93/224/49 91/225/49 92/226/49 94/227/49
f 95/228/49 93/229/49 94/230/49 96/231/49
f 70/232/49 95/233/49 96/234/49 71/235/49
f 97/236/50 98/237/50 99/238/50 100/239/50
f 101/240/50 102/241/50 103/242/50 104/243/50
f 105/244/50 106/245/50 77/246/50 76/247/50
f 79/248/50 78/249/50 107/250/50 108/251/50
f 104/252/50 103/253/50 109/254/50 110/255/50
f 110/256/50 109/257/50 111/258/50 112/259/50
f 113/260/50 114/261/50 115/262/50 116/263/50
f 117/264/50 118/265/50 114/266/50 113/267/50
f 112/268/50 111/269/50 98/270/50 97/271/50
f 119/272/50 120/273/50 118/274/50 117/275/50
f 116/276/50 115/277/50 106/278/50 105/279/50
f 121/280/50 122/281/50 120/282/50 119/283/50
f 108/284/50 107/285/50 123/286/50 124/287/50
f 100/288/50 99/289/50 122/290/50 121/291/50
f 124/292/50 123/293/50 102/294/50 101/295/50
f 125/296/53 126/297/53 63/298/53 62/299/53
f 127/300/54 128/301/54 59/302/54 58/303/54
f 128/304/55 129/305/55 74/306/55 59/307/55
f 129/308/56 130/309/56 80/310/56 74/311/56
f 130/312/57 131/313/57 132/314/57 80/315/57
f 131/316/58 133/317/58 88/318/58 132/319/58
f 133/320/59 134/321/59 72/322/59 88/323/59
f 135/324/60 127/325/60 58/326/60 89/327/60
f 136/328/61 135/329/61 89/330/61 91/331/61
f 137/332/62 136/333/62 91/334/62 93/335/62
f 138/336/63 137/337/63 93/338/63 95/339/63
f 139/340/64 138/341/64 95/342/64 70/343/64
f 140/344/65 125/345/65 62/346/65 66/347/65
f 141/348/66 140/349/66 66/350/66 68/351/66
f 134/352/67 141/353/67 68/354/67 72/355/67
f 126/356/68 139/357/68 70/358/68 63/359/68
f 65/360/69 64/361/69 142/362/69 143/363/69
f 61/364/70 60/365/70 144/366/70 145/367/70
f 60/368/71 75/369/71 146/370/71 144/371/71
f 75/372/72 81/373/72 147/374/72 146/375/72
f 81/209/73 148/376/73 149/377/73 147/378/73
f 148/379/74 83/206/74 150/380/74 149/381/74
f 83/382/75 73/383/75 151/384/75 150/385/75
f 90/386/76 61/387/76 145/388/76 152/389/76
f 92/390/77 90/391/77 152/392/77 153/393/77
f 94/394/78 92/395/78 153/396/78 154/397/78
f 96/398/79 94/399/79 154/400/79 155/401/79
f 71/402/80 96/403/80 155/404/80 156/405/80
f 67/406/81 65/407/81 143/408/81 157/409/81
f 69/410/82 67/411/82 157/412/82 158/413/82
f 73/414/83 69/415/83 158/416/83 151/417/83
f 64/418/84 71/419/84 156/420/84 142/421/84
f 76/197/85 79/422/85 126/423/85 125/424/85
f 112/268/86 97/425/86 128/426/86 127/427/86
f 97/236/87 100/428/87 129/429/87 128/430/87
f 100/288/88 121/431/88 130/432/88 129/433/88
f 121/280/89 119/434/89 131/435/89 130/436/89
f 119/272/90 117/437/90 133/438/90 131/439/90
f 117/264/91 113/440/91 134/441/91 133/442/91
f 110/256/92 112/443/92 127/444/92 135/445/92
f 104/252/93 110/446/93 135/447/93 136/448/93
f 101/240/94 104/449/94 136/450/94 137/451/94
f 124/292/95 101/452/95 137/453/95 138/454/95
f 108/284/96 124/455/96 138/456/96 139/457/96
f 105/244/97 76/458/97 125/459/97 140/460/97
f 116/276/98 105/461/98 140/462/98 141/463/98
f 113/260/99 116/464/99 141/465/99 134/466/99
f 79/248/100 108/467/100 139/468/100 126/469/100
f 86/470/101 159/471/101 160/472/101 87/211/101
f 159/473/102 161/474/102 82/475/102 160/476/102
f 80/477/103 132/478/103 159/479/103 86/480/103
f 160/481/104 82/482/104 85/483/104 162/484/104
f 132/485/105 88/486/105 161/487/105 159/488/105
f 88/212/106 83/206/106 82/475/106 161/489/106
f 163/490/107 164/491/107 165/492/107 162/484/107
f 84/493/108 163/494/107 162/495/107 85/208/108
f 148/379/50 81/373/50 164/496/50 163/497/50
f 83/382/50 148/376/50 163/498/50 84/499/50
f 87/500/109 160/501/109 162/495/109 165/502/109
f 81/209/110 87/503/110 165/492/110 164/504/110
