# Blender v2.79 (sub 0) OBJ File: ''
# www.blender.org
mtllib fork.mtl
o Cube.167_Cube.195_other_1
v 0.510970 0.058288 0.035953
v 0.512395 0.058288 0.035953
v 0.512659 0.059668 0.035748
v 0.510935 0.059668 0.035748
v 0.509024 0.053253 0.036673
v 0.509024 0.056908 0.036159
v 0.509024 0.056908 0.034496
v 0.509024 0.053253 0.035010
v 0.509259 0.058288 0.034291
v 0.507833 0.058288 0.034291
v 0.507570 0.059668 0.034085
v 0.509294 0.059668 0.034085
v 0.511204 0.053253 0.035010
v 0.511204 0.056908 0.034496
v 0.511204 0.056908 0.036159
v 0.511204 0.053253 0.036673
v 0.509571 0.038696 0.036673
v 0.509571 0.053253 0.036673
v 0.509024 0.038696 0.036673
v 0.508816 0.066839 0.035245
v 0.508816 0.066839 0.034588
v 0.508047 0.066839 0.034588
v 0.508047 0.066839 0.035245
v 0.512395 0.058288 0.034291
v 0.512659 0.059668 0.034085
v 0.509024 0.038696 0.035010
v 0.509571 0.053253 0.035010
v 0.509571 0.038696 0.035010
v 0.509294 0.059668 0.035748
v 0.507833 0.058288 0.035953
v 0.507570 0.059668 0.035748
v 0.509571 0.056908 0.034496
v 0.510657 0.056908 0.036159
v 0.510657 0.053253 0.036673
v 0.512091 0.066839 0.034588
v 0.512091 0.066839 0.035245
v 0.510657 0.038696 0.036673
v 0.510657 0.038696 0.035010
v 0.511204 0.038696 0.035010
v 0.511204 0.038696 0.036673
v 0.510657 0.053253 0.035010
v 0.510657 0.056908 0.034496
v 0.509571 0.056908 0.036159
v 0.510970 0.058288 0.034291
v 0.510935 0.059668 0.034085
v 0.509259 0.058288 0.035953
v 0.509754 0.066839 0.035245
v 0.509754 0.066839 0.034588
v 0.510475 0.066839 0.035245
v 0.510475 0.066839 0.034588
v 0.511503 0.066839 0.034588
v 0.511503 0.066839 0.035245
vt 0.625000 0.083999
vt 0.625000 0.000000
vt 0.625000 0.000000
vt 0.625000 0.105259
vt 0.564815 0.250000
vt 0.625000 0.250000
vt 0.625000 0.500000
vt 0.564815 0.500000
vt 0.625000 0.583999
vt 0.625000 0.500000
vt 0.625000 0.500000
vt 0.625000 0.605259
vt 0.564815 0.750000
vt 0.625000 0.750000
vt 0.625000 1.000000
vt 0.564815 1.000000
vt 0.375000 0.187261
vt 0.564815 0.187261
vt 0.375000 0.250000
vt 0.625000 0.144741
vt 0.625000 0.605259
vt 0.625000 0.500000
vt 0.625000 0.250000
vt 0.625000 1.000000
vt 0.625000 0.750000
vt 0.625000 0.750000
vt 0.625000 1.000000
vt 0.375000 0.500000
vt 0.564815 0.562739
vt 0.375000 0.562739
vt 0.625000 0.144741
vt 0.625000 0.250000
vt 0.625000 0.250000
vt 0.625000 0.562739
vt 0.564815 0.000000
vt 0.625000 0.000000
vt 0.625000 0.062739
vt 0.564815 0.062739
vt 0.625000 0.750000
vt 0.625000 1.000000
vt 0.125000 0.687261
vt 0.375000 0.687261
vt 0.375000 0.750000
vt 0.125000 0.750000
vt 0.564815 0.687261
vt 0.625000 0.687261
vt 0.625000 0.187261
vt 0.125000 0.500000
vt 0.125000 0.562739
vt 0.375000 1.000000
vt 0.625000 0.666001
vt 0.625000 0.644741
vt 0.625000 0.166001
vt 0.625000 0.144741
vt 0.625000 0.605259
vt 0.375000 0.062739
vt 0.375000 0.000000
vt 0.625000 0.105259
vt 0.625000 0.644741
vt 0.625000 0.644741
vt 0.625000 0.105259
vt 0.625000 0.000000
vn 0.0000 0.1473 0.9891
vn 0.0000 0.1475 0.9891
vn -1.0000 -0.0000 0.0000
vn 0.0000 -0.1473 -0.9891
vn 0.0000 -0.1474 -0.9891
vn 0.0000 -0.1476 -0.9890
vn 1.0000 -0.0000 0.0000
vn 0.0000 -0.0000 1.0000
vn 0.0000 1.0000 0.0000
vn 0.9823 -0.1875 -0.0000
vn 0.0000 0.0000 -1.0000
vn 0.9978 0.0662 0.0000
vn -0.9823 -0.1872 0.0000
vn 0.0000 -0.1388 -0.9903
vn 0.0000 -0.1396 -0.9902
vn 0.0000 -0.1389 -0.9903
vn -0.0000 0.1388 0.9903
vn -0.0000 0.1400 0.9902
vn 0.0000 0.1393 0.9903
vn 0.9969 0.0790 0.0000
vn 0.0000 -1.0000 0.0000
vn -0.0000 -0.1395 -0.9902
vn 0.0000 0.1392 0.9903
vn 0.0000 0.1399 0.9902
vn 0.0000 0.1472 0.9891
vn -0.9979 0.0640 0.0000
vn 0.0000 0.0700 0.9975
vn -0.9978 0.0664 0.0000
vn 0.0000 0.0700 -0.9975
vn 0.9979 0.0640 0.0000
vn -0.9969 0.0790 0.0000
vn -0.7570 -0.6534 0.0000
vn 0.7570 -0.6534 0.0000
usemtl other_1
s 1
f 1/1/1 2/2/2 3/3/1 4/4/1
f 5/5/3 6/6/3 7/7/3 8/8/3
f 9/9/4 10/10/5 11/11/6 12/12/6
f 13/13/7 14/14/7 15/15/7 16/16/7
f 17/17/8 18/18/8 5/5/8 19/19/8
f 20/20/9 21/21/9 22/22/9 23/23/9
f 2/24/10 24/25/10 25/26/10 3/27/10
f 26/28/11 8/8/11 27/29/11 28/30/11
f 29/31/12 12/12/12 21/21/12 20/20/12
f 10/10/13 30/32/13 31/33/13 11/11/13
f 8/8/14 7/7/15 32/34/4 27/29/16
f 16/35/17 15/36/18 33/37/19 34/38/19
f 3/27/20 25/26/20 35/39/20 36/40/20
f 37/41/21 38/42/21 39/43/21 40/44/21
f 41/45/16 42/46/4 14/14/22 13/13/14
f 18/18/19 43/47/23 6/6/24 5/5/17
f 19/48/21 26/28/21 28/30/21 17/49/21
f 38/42/11 41/45/11 13/13/11 39/43/11
f 39/43/7 13/13/7 16/16/7 40/50/7
f 24/25/5 44/51/4 45/52/6 25/26/6
f 19/19/3 5/5/3 8/8/3 26/28/3
f 30/32/25 46/53/1 29/31/1 31/33/1
f 9/9/4 12/12/6 45/52/6 44/51/4
f 1/1/1 4/4/1 29/31/1 46/53/1
f 12/12/26 29/31/26 47/54/26 48/55/26
f 38/42/21 37/41/21 17/49/21 28/30/21
f 41/45/11 38/42/11 28/30/11 27/29/11
f 18/18/8 17/17/8 37/56/8 34/38/8
f 42/46/4 41/45/16 27/29/16 32/34/4
f 43/47/23 18/18/19 34/38/19 33/37/19
f 40/57/8 16/35/8 34/38/8 37/56/8
f 31/33/27 29/31/27 20/20/27 23/23/27
f 11/11/28 31/33/28 23/23/28 22/22/28
f 12/12/29 11/11/29 22/22/29 21/21/29
f 49/58/9 50/59/9 48/55/9 47/54/9
f 4/4/30 45/52/30 50/59/30 49/58/30
f 29/31/27 4/4/27 49/58/27 47/54/27
f 45/52/29 12/12/29 48/55/29 50/59/29
f 35/39/9 51/60/9 52/61/9 36/62/9
f 45/52/31 4/4/31 52/61/31 51/60/31
f 25/26/29 45/52/29 51/60/29 35/39/29
f 4/4/27 3/3/27 36/62/27 52/61/27
f 33/37/19 1/1/1 46/53/1 43/47/23
f 32/34/4 9/9/4 44/51/4 42/46/4
f 6/6/24 43/47/23 46/53/1 30/32/25
f 14/14/22 42/46/4 44/51/4 24/25/5
f 7/7/32 6/6/32 30/32/32 10/10/32
f 15/15/33 14/14/33 24/25/33 2/24/33
f 32/34/4 7/7/15 10/10/5 9/9/4
f 33/37/19 15/36/18 2/2/2 1/1/1
