# Blender v2.79 (sub 0) OBJ File: ''
# www.blender.org
mtllib corpus.mtl
o Cube.113_Cube.141_darck
v 0.007096 -0.107904 0.000008
v 0.008429 -0.107904 0.005989
v 0.006881 -0.110585 0.005989
v 0.006214 -0.109431 0.000008
v 0.003784 -0.110585 0.005989
v 0.004451 -0.109431 0.000008
v 0.002236 -0.107904 0.005989
v 0.003569 -0.107904 0.000008
v 0.003784 -0.105222 0.005989
v 0.004451 -0.106376 0.000008
v 0.006881 -0.105222 0.005989
v 0.006214 -0.106376 0.000008
v 0.007096 -0.006723 0.000008
v 0.008429 -0.006723 0.005989
v 0.006881 -0.009405 0.005989
v 0.006214 -0.008252 0.000008
v 0.003784 -0.009405 0.005989
v 0.004451 -0.008252 0.000008
v 0.002236 -0.006723 0.005989
v 0.003569 -0.006723 0.000008
v 0.003784 -0.004041 0.005989
v 0.004451 -0.005197 0.000008
v 0.006881 -0.004041 0.005989
v 0.006214 -0.005197 0.000008
v 0.080608 -0.006723 0.000008
v 0.081941 -0.006723 0.005989
v 0.080393 -0.009405 0.005989
v 0.079726 -0.008252 0.000008
v 0.077296 -0.009405 0.005989
v 0.077963 -0.008252 0.000008
v 0.075748 -0.006723 0.005989
v 0.077081 -0.006723 0.000008
v 0.077296 -0.004041 0.005989
v 0.077963 -0.005197 0.000008
v 0.080393 -0.004041 0.005989
v 0.079726 -0.005197 0.000008
v 0.080608 -0.107904 0.000008
v 0.081941 -0.107904 0.005989
v 0.080393 -0.110585 0.005989
v 0.079726 -0.109431 0.000008
v 0.077296 -0.110585 0.005989
v 0.077963 -0.109431 0.000008
v 0.075748 -0.107904 0.005989
v 0.077081 -0.107904 0.000008
v 0.077296 -0.105222 0.005989
v 0.077963 -0.106376 0.000008
v 0.080393 -0.105222 0.005989
v 0.079726 -0.106376 0.000008
vt 1.000000 0.500000
vt 1.000000 1.000000
vt 0.833333 1.000000
vt 0.833333 0.500000
vt 0.666667 1.000000
vt 0.666667 0.500000
vt 0.500000 1.000000
vt 0.500000 0.500000
vt 0.333333 1.000000
vt 0.333333 0.500000
vt 0.457846 0.370000
vt 0.250000 0.490000
vt 0.042154 0.370000
vt 0.042154 0.130000
vt 0.250000 0.010000
vt 0.457846 0.130000
vt 0.166667 1.000000
vt 0.166667 0.500000
vt -0.000000 1.000000
vt -0.000000 0.500000
vt 0.750000 0.490000
vt 0.957846 0.370000
vt 0.957846 0.130000
vt 0.750000 0.010000
vt 0.542154 0.130000
vt 0.542154 0.370000
vt 1.000000 0.500000
vt 1.000000 1.000000
vt 0.833333 1.000000
vt 0.833333 0.500000
vt 0.666667 1.000000
vt 0.666667 0.500000
vt 0.500000 1.000000
vt 0.500000 0.500000
vt 0.333333 1.000000
vt 0.333333 0.500000
vt 0.457846 0.370000
vt 0.250000 0.490000
vt 0.042154 0.370000
vt 0.042154 0.130000
vt 0.250000 0.010000
vt 0.457846 0.130000
vt 0.166667 1.000000
vt 0.166667 0.500000
vt -0.000000 1.000000
vt -0.000000 0.500000
vt 0.750000 0.490000
vt 0.957846 0.370000
vt 0.957846 0.130000
vt 0.750000 0.010000
vt 0.542154 0.130000
vt 0.542154 0.370000
vt 1.000000 0.500000
vt 1.000000 1.000000
vt 0.833333 1.000000
vt 0.833333 0.500000
vt 0.666667 1.000000
vt 0.666667 0.500000
vt 0.500000 1.000000
vt 0.500000 0.500000
vt 0.333333 1.000000
vt 0.333333 0.500000
vt 0.457846 0.370000
vt 0.250000 0.490000
vt 0.042154 0.370000
vt 0.042154 0.130000
vt 0.250000 0.010000
vt 0.457846 0.130000
vt 0.166667 1.000000
vt 0.166667 0.500000
vt -0.000000 1.000000
vt -0.000000 0.500000
vt 0.750000 0.490000
vt 0.957846 0.370000
vt 0.957846 0.130000
vt 0.750000 0.010000
vt 0.542154 0.130000
vt 0.542154 0.370000
vt 1.000000 0.500000
vt 1.000000 1.000000
vt 0.833333 1.000000
vt 0.833333 0.500000
vt 0.666667 1.000000
vt 0.666667 0.500000
vt 0.500000 1.000000
vt 0.500000 0.500000
vt 0.333333 1.000000
vt 0.333333 0.500000
vt 0.457846 0.370000
vt 0.250000 0.490000
vt 0.042154 0.370000
vt 0.042154 0.130000
vt 0.250000 0.010000
vt 0.457846 0.130000
vt 0.166667 1.000000
vt 0.166667 0.500000
vt -0.000000 1.000000
vt -0.000000 0.500000
vt 0.750000 0.490000
vt 0.957846 0.370000
vt 0.957846 0.130000
vt 0.750000 0.010000
vt 0.542154 0.130000
vt 0.542154 0.370000
vn 0.8503 -0.4910 -0.1895
vn 0.0000 -0.9819 -0.1894
vn -0.8503 -0.4910 -0.1895
vn -0.8504 0.4908 -0.1895
vn -0.0000 0.0000 1.0000
vn 0.0000 0.9819 -0.1894
vn 0.8504 0.4908 -0.1895
vn 0.0000 0.0000 -1.0000
vn 0.8504 -0.4908 -0.1895
vn 0.0000 -0.9819 -0.1893
vn -0.8504 -0.4908 -0.1895
vn -0.8503 0.4910 -0.1896
vn 0.0000 0.9818 -0.1898
vn 0.8503 0.4910 -0.1896
vn 0.0000 0.9819 -0.1895
usemtl darck
s 1
f 1/1/1 2/2/1 3/3/1 4/4/1
f 4/4/2 3/3/2 5/5/2 6/6/2
f 6/6/3 5/5/3 7/7/3 8/8/3
f 8/8/4 7/7/4 9/9/4 10/10/4
f 3/11/5 2/12/5 11/13/5 9/14/5 7/15/5 5/16/5
f 10/10/6 9/9/6 11/17/6 12/18/6
f 12/18/7 11/17/7 2/19/7 1/20/7
f 1/21/8 4/22/8 6/23/8 8/24/8 10/25/8 12/26/8
f 13/27/9 14/28/9 15/29/9 16/30/9
f 16/30/10 15/29/10 17/31/10 18/32/10
f 18/32/11 17/31/11 19/33/11 20/34/11
f 20/34/12 19/33/12 21/35/12 22/36/12
f 15/37/5 14/38/5 23/39/5 21/40/5 19/41/5 17/42/5
f 22/36/13 21/35/13 23/43/13 24/44/13
f 24/44/14 23/43/14 14/45/14 13/46/14
f 13/47/8 16/48/8 18/49/8 20/50/8 22/51/8 24/52/8
f 25/53/9 26/54/9 27/55/9 28/56/9
f 28/56/10 27/55/10 29/57/10 30/58/10
f 30/58/11 29/57/11 31/59/11 32/60/11
f 32/60/12 31/59/12 33/61/12 34/62/12
f 27/63/5 26/64/5 35/65/5 33/66/5 31/67/5 29/68/5
f 34/62/6 33/61/6 35/69/6 36/70/6
f 36/70/14 35/69/14 26/71/14 25/72/14
f 25/73/8 28/74/8 30/75/8 32/76/8 34/77/8 36/78/8
f 37/79/1 38/80/1 39/81/1 40/82/1
f 40/82/2 39/81/2 41/83/2 42/84/2
f 42/84/3 41/83/3 43/85/3 44/86/3
f 44/86/4 43/85/4 45/87/4 46/88/4
f 39/89/5 38/90/5 47/91/5 45/92/5 43/93/5 41/94/5
f 46/88/15 45/87/15 47/95/15 48/96/15
f 48/96/7 47/95/7 38/97/7 37/98/7
f 37/99/8 40/100/8 42/101/8 44/102/8 46/103/8 48/104/8
o Cube.113_Cube.141_basic_2
v 0.086190 -0.115209 0.093838
v 0.086190 -0.115209 0.051586
v 0.091139 -0.113158 0.051586
v 0.091139 -0.113158 0.093838
v 0.093190 -0.007022 0.140924
v 0.091139 -0.002073 0.140924
v 0.091139 -0.002073 0.146266
v 0.093190 -0.007022 0.146266
v -0.000237 -0.000022 0.093838
v -0.000237 -0.000022 0.051586
v -0.000237 -0.002144 0.051586
v -0.000237 -0.002144 0.093838
v 0.093190 -0.007022 0.093838
v 0.093190 -0.007022 0.051586
v 0.091139 -0.002073 0.051586
v 0.091139 -0.002073 0.093838
v 0.093190 -0.007022 0.004742
v 0.093190 -0.108209 0.004742
v 0.086190 -0.108209 0.004742
v 0.086190 -0.007022 0.004742
v 0.093190 -0.108209 0.140924
v 0.093190 -0.108209 0.146266
v 0.086190 -0.115209 0.004742
v -0.000237 -0.115209 0.004742
v -0.000237 -0.108209 0.004742
v 0.091139 -0.113158 0.140924
v 0.091139 -0.113158 0.146266
v 0.086190 -0.000022 0.004742
v -0.000237 -0.007022 0.004742
v -0.000237 -0.000022 0.004742
v -0.000237 -0.115209 0.140924
v 0.086190 -0.115209 0.140924
v 0.086190 -0.115209 0.146266
v -0.000237 -0.115209 0.146266
v 0.091139 -0.002073 0.004742
v 0.086190 -0.000022 0.140924
v -0.000237 -0.000022 0.140924
v -0.000237 -0.000022 0.146266
v 0.086190 -0.000022 0.146266
v 0.091139 -0.002073 0.049250
v 0.086190 -0.000022 0.049250
v 0.086190 -0.000022 0.051586
v 0.086190 -0.000022 0.093838
v 0.091139 -0.113158 0.004742
v 0.091139 -0.113158 0.049250
v 0.093190 -0.108209 0.049250
v 0.093190 -0.108209 0.051586
v 0.093190 -0.108209 0.093838
v 0.085753 -0.113013 0.006739
v -0.000237 -0.113087 0.006863
v -0.000237 -0.113087 0.049250
v 0.085753 -0.113013 0.048716
v 0.086190 -0.108209 0.137497
v -0.000237 -0.108209 0.137497
v -0.000237 -0.007022 0.137497
v 0.086190 -0.007022 0.137497
v 0.085753 -0.002218 0.052120
v 0.085753 -0.002218 0.093321
v 0.090994 -0.007459 0.006739
v 0.090994 -0.107772 0.006739
v 0.090994 -0.107772 0.048716
v 0.090994 -0.007459 0.048716
v 0.086190 -0.007022 0.007742
v 0.086190 -0.108209 0.007742
v 0.085753 -0.002218 0.138500
v -0.000237 -0.002144 0.138375
v -0.000237 -0.108209 0.007742
v 0.085753 -0.113013 0.138500
v -0.000237 -0.113087 0.138375
v 0.085753 -0.002218 0.006739
v -0.000237 -0.002144 0.006863
v -0.000237 -0.007022 0.007742
v 0.090994 -0.107772 0.138500
v 0.090994 -0.007459 0.138500
v 0.089492 -0.003720 0.006633
v 0.089492 -0.111512 0.138606
v 0.089492 -0.003720 0.048716
v 0.085753 -0.002218 0.048716
v 0.089492 -0.003720 0.093321
v 0.089492 -0.003720 0.052120
v 0.089492 -0.111512 0.006633
v 0.089492 -0.003720 0.138606
v 0.089492 -0.111512 0.048716
v 0.089492 -0.111512 0.093321
v 0.090994 -0.107772 0.093321
v 0.090994 -0.107772 0.052120
v 0.089492 -0.111512 0.052120
v 0.093190 -0.007022 0.096234
v 0.091139 -0.002073 0.096234
v -0.000237 -0.108209 0.140924
v -0.000237 -0.007022 0.140924
v -0.000237 -0.002144 0.096234
v 0.085753 -0.002218 0.096751
v 0.086190 -0.108209 0.146266
v 0.086190 -0.007022 0.146266
v -0.000237 -0.007022 0.146266
v -0.000237 -0.108209 0.146266
v -0.005144 -0.002099 0.140924
v -0.005144 -0.002099 0.146266
v -0.007435 -0.108209 0.140924
v -0.007435 -0.007022 0.140924
v -0.005144 -0.113132 0.146266
v -0.005144 -0.113132 0.140924
v -0.007435 -0.108209 0.146266
v -0.007435 -0.007022 0.146266
v -0.000237 -0.115209 0.051586
v -0.000237 -0.115209 0.093838
v -0.000237 -0.113087 0.093838
v -0.000237 -0.113087 0.051586
v -0.000237 -0.115209 0.096234
v -0.000237 -0.113087 0.096234
v -0.000237 -0.000022 0.049250
v 0.090994 -0.107772 0.096751
v 0.089492 -0.111512 0.096751
v 0.085753 -0.113013 0.052120
v 0.085753 -0.113013 0.093321
v 0.085753 -0.113013 0.096751
v 0.089492 -0.003720 0.096751
v 0.090994 -0.007459 0.052120
v 0.090994 -0.007459 0.093321
v 0.090994 -0.007459 0.096751
v -0.000237 -0.002144 0.049250
v -0.000237 -0.115209 0.049250
v 0.091139 -0.113158 0.096234
v 0.093190 -0.108209 0.096234
v 0.086190 -0.115209 0.049250
v 0.086190 -0.115209 0.096234
v 0.086190 -0.000022 0.096234
v 0.093190 -0.007022 0.049250
v -0.000237 -0.000022 0.096234
vt 0.534771 0.517426
vt 0.465209 0.517426
vt 0.465208 0.500000
vt 0.534775 0.500000
vt 0.612828 0.265193
vt 0.612828 0.250000
vt 0.612828 0.250000
vt 0.612828 0.265193
vt 0.534764 0.017426
vt 0.465212 0.017426
vt 0.465312 0.017426
vt 0.534663 0.017426
vt 0.534777 0.265193
vt 0.465207 0.265193
vt 0.465208 0.250000
vt 0.534775 0.250000
vt 0.387172 0.265193
vt 0.387172 0.484807
vt 0.000000 0.000000
vt 0.140193 0.517426
vt 0.612828 0.484807
vt 0.612828 0.484807
vt 0.387172 0.517426
vt 0.387172 0.732574
vt 0.000000 0.000000
vt 0.359807 0.517426
vt 0.612828 0.500000
vt 0.612828 0.500000
vt 0.387172 0.232574
vt 0.000000 0.000000
vt 0.387172 0.017426
vt 0.612828 0.732574
vt 0.612828 0.517426
vt 0.612828 0.517426
vt 0.612828 0.732574
vt 0.387172 0.250000
vt 0.000000 0.000000
vt 0.612828 0.232574
vt 0.612828 0.017426
vt 0.612828 0.017426
vt 0.612828 0.232574
vt 0.459574 0.250000
vt 0.459572 0.232574
vt 0.465209 0.232574
vt 0.534771 0.232574
vt 0.387172 0.500000
vt 0.459574 0.500000
vt 0.459574 0.484807
vt 0.465207 0.484807
vt 0.534777 0.484807
vt 0.359807 0.732574
vt 0.140193 0.732574
vt 0.387172 0.517426
vt 0.387172 0.732574
vt 0.459469 0.732574
vt 0.459477 0.517426
vt 0.640193 0.517426
vt 0.640193 0.732574
vt 0.859807 0.732574
vt 0.859807 0.517426
vt 0.465304 0.232574
vt 0.534675 0.232574
vt 0.387172 0.265193
vt 0.387172 0.484807
vt 0.459480 0.484807
vt 0.459480 0.265193
vt 0.140193 0.517426
vt 0.000000 0.000000
vt 0.612828 0.232574
vt 0.000000 0.000000
vt 0.612828 0.017426
vt 0.359807 0.517426
vt 0.000000 0.000000
vt 0.612828 0.517426
vt 0.612828 0.732574
vt 0.000000 0.000000
vt 0.387172 0.232574
vt 0.387172 0.017426
vt 0.000000 0.000000
vt 0.612828 0.484807
vt 0.000000 0.000000
vt 0.612828 0.265193
vt 0.387172 0.250000
vt 0.000000 0.000000
vt 0.612828 0.500000
vt 0.000000 0.000000
vt 0.459484 0.250000
vt 0.459477 0.232574
vt 0.534685 0.250000
vt 0.465298 0.250000
vt 0.387172 0.500000
vt 0.612828 0.250000
vt 0.459484 0.500000
vt 0.534685 0.500000
vt 0.534682 0.484807
vt 0.465302 0.484807
vt 0.465298 0.500000
vt 0.140193 0.732574
vt 0.359807 0.732574
vt 0.540441 0.265193
vt 0.540444 0.250000
vt 0.000000 0.000000
vt 0.000000 0.000000
vt 0.540556 0.017426
vt 0.540543 0.232574
vt 0.640193 0.732574
vt 0.859807 0.732574
vt 0.640193 0.517426
vt 0.859807 0.517426
vt 0.859807 0.732574
vt 0.640193 0.732574
vt 0.000000 0.000000
vt 0.000000 0.000000
vt 0.000000 0.000000
vt 0.000000 0.000000
vt 0.612828 0.017426
vt 0.612828 0.017426
vt 0.640193 0.732574
vt 0.859807 0.732574
vt 0.612828 0.732574
vt 0.612828 0.732574
vt 0.000000 0.000000
vt 0.000000 0.000000
vt 0.000000 0.000000
vt 0.000000 0.000000
vt 0.640193 0.732574
vt 0.859807 0.732574
vt 0.465212 0.732574
vt 0.534764 0.732574
vt 0.534663 0.732574
vt 0.465312 0.732574
vt 0.540455 0.732574
vt 0.540556 0.732574
vt 0.459569 0.017426
vt 0.540537 0.484807
vt 0.540534 0.500000
vt 0.465304 0.517426
vt 0.534675 0.517426
vt 0.540543 0.517426
vt 0.540534 0.250000
vt 0.465301 0.265193
vt 0.534682 0.265193
vt 0.540537 0.265193
vt 0.459469 0.017426
vt 0.459569 0.732574
vt 0.540444 0.500000
vt 0.540441 0.484807
vt 0.459572 0.517426
vt 0.540448 0.517426
vt 0.540448 0.232574
vt 0.459574 0.265193
vt 0.540455 0.017426
vt 0.000000 0.000000
vt 0.000000 0.000000
vt 0.000000 0.000000
vt 0.000000 0.000000
vt 0.000000 0.000000
vt 0.000000 0.000000
vt 0.000000 0.000000
vt 0.000000 0.000000
vt 0.000000 0.000000
vt 0.000000 0.000000
vt 0.000000 0.000000
vt 0.000000 0.000000
vt 0.000000 0.000000
vt 0.000000 0.000000
vt 0.000000 0.000000
vt 0.000000 0.000000
vt 0.000000 0.000000
vt 0.000000 0.000000
vt 0.000000 0.000000
vt 0.000000 0.000000
vt 0.000000 0.000000
vt 0.000000 0.000000
vt 0.000000 0.000000
vt 0.000000 0.000000
vt 0.000000 0.000000
vt 0.000000 0.000000
vt 0.000000 0.000000
vt 0.000000 0.000000
vt 0.000000 0.000000
vt 0.000000 0.000000
vt 0.000000 0.000000
vt 0.000000 0.000000
vn 0.3825 -0.9239 0.0000
vn 0.9238 0.3829 0.0000
vn 0.9238 0.3828 0.0000
vn -1.0000 0.0000 -0.0000
vn 0.0000 0.0000 -1.0000
vn 1.0000 0.0000 0.0000
vn 0.9238 -0.3829 0.0000
vn 0.0000 -1.0000 0.0000
vn 0.0000 1.0000 0.0000
vn 0.3829 0.9238 0.0000
vn 0.3825 0.9239 0.0000
vn 0.3824 0.9240 0.0000
vn 0.3829 -0.9238 0.0000
vn 0.9240 -0.3824 0.0000
vn -0.0009 1.0000 0.0000
vn -0.0009 -1.0000 0.0000
vn 0.2044 0.0000 0.9789
vn 0.0008 0.1907 -0.9816
vn 0.0008 -0.1908 0.9816
vn 0.0008 -0.1907 -0.9816
vn 0.0008 0.1908 0.9816
vn 0.2044 0.0000 -0.9789
vn 0.1634 0.1634 0.9729
vn 0.1634 -0.1634 -0.9729
vn -0.3728 -0.9279 0.0000
vn 0.1634 -0.1634 0.9729
vn 0.1634 0.1634 -0.9729
vn -0.9280 0.3727 0.0000
vn -0.0000 0.0000 1.0000
vn -0.3898 0.9209 -0.0000
vn -0.3898 -0.9209 0.0000
vn -0.9066 -0.4219 0.0000
vn -0.9066 0.4219 -0.0000
vn -0.3725 0.9280 0.0000
vn -0.9279 -0.3728 0.0000
vn -0.0004 0.0000 -1.0000
vn -0.0060 0.0000 -1.0000
vn -0.0062 0.0000 -1.0000
vn -0.0005 -0.0000 -1.0000
vn -0.0005 0.0000 1.0000
vn -0.0062 0.0000 1.0000
vn -0.0004 0.0000 1.0000
vn -0.0060 0.0000 1.0000
usemtl basic_2
s 1
f 49/105/16 50/106/16 51/107/16 52/108/16
f 53/109/17 54/110/17 55/111/18 56/112/18
f 57/113/19 58/114/19 59/115/19 60/116/19
f 61/117/17 62/118/17 63/119/17 64/120/17
f 65/121/20 66/122/20 67/123/20 68/124/20
f 69/125/21 53/109/21 56/112/21 70/126/21
f 71/127/20 72/128/20 73/129/20 67/130/20
f 74/131/22 69/125/22 70/126/22 75/132/22
f 76/133/20 68/124/20 77/134/20 78/135/20
f 79/136/23 80/137/23 81/138/23 82/139/23
f 83/140/20 65/121/20 68/141/20 76/133/20
f 84/142/24 85/143/24 86/144/24 87/145/24
f 88/146/25 83/140/25 76/133/25 89/147/25
f 64/120/26 63/119/27 90/148/27 91/149/26
f 71/127/20 67/123/20 66/122/20 92/150/20
f 80/137/28 74/131/28 75/132/28 81/138/28
f 93/151/22 92/150/22 66/122/22 94/152/22
f 52/108/22 51/107/29 95/153/29 96/154/22
f 68/124/20 67/130/20 73/155/20 77/156/20
f 97/157/30 98/158/30 99/159/30 100/160/30
f 101/161/20 102/162/20 103/163/20 104/164/20
f 59/115/31 105/165/31 106/166/31 60/116/31
f 107/167/19 108/168/19 109/169/19 110/170/19
f 107/167/32 111/171/32 112/172/32 108/168/32
f 113/173/33 104/164/33 103/174/33 114/175/33
f 97/157/34 112/176/34 115/177/34 98/158/34
f 116/178/35 117/179/35 102/180/35 101/161/35
f 118/181/36 119/182/36 120/183/36 111/171/36
f 121/184/37 101/161/37 104/185/37 122/186/37
f 123/187/38 118/181/38 111/188/38 107/167/38
f 121/184/39 124/189/39 116/178/39 101/190/39
f 125/191/40 126/192/40 118/181/40 123/187/40
f 127/193/40 106/166/40 105/165/40 128/194/40
f 97/157/41 129/195/41 108/168/41 112/172/41
f 130/196/42 122/186/42 104/185/42 113/173/42
f 131/197/43 109/169/43 108/168/43 129/195/43
f 132/198/43 133/199/43 134/200/43 135/201/43
f 111/171/44 120/202/44 115/203/44 112/176/44
f 53/109/17 136/204/17 137/205/17 54/110/17
f 79/136/19 138/206/19 102/180/19 117/179/19
f 73/129/19 72/128/19 98/158/19 115/177/19
f 78/135/19 77/134/19 120/183/19 119/182/19
f 139/207/19 85/143/19 114/175/19 103/174/19
f 140/208/31 141/209/31 113/173/31 114/175/31
f 77/156/19 73/155/19 115/203/19 120/202/19
f 138/210/19 139/211/19 103/163/19 102/162/19
f 142/212/44 143/213/44 144/214/44 145/215/44
f 87/145/44 86/144/44 144/216/44 143/213/44
f 81/138/44 142/212/44 145/217/44 82/139/44
f 70/126/44 56/112/44 143/218/44 142/212/44
f 70/126/44 142/219/44 81/138/44 75/132/44
f 55/111/44 87/145/44 143/218/44 56/112/44
f 86/144/45 85/143/45 146/220/45 147/221/45
f 139/211/20 138/210/20 148/222/20 149/223/20
f 54/110/25 84/142/25 87/145/25 55/111/25
f 79/136/46 82/139/46 150/224/46 151/225/46
f 148/226/47 151/225/47 150/224/47 152/227/47
f 146/220/48 149/228/48 153/229/48 147/221/48
f 149/223/19 148/222/19 152/230/19 153/231/19
f 85/143/20 139/207/20 149/228/20 146/220/20
f 82/139/44 145/217/44 152/227/44 150/224/44
f 145/215/44 144/214/44 153/231/44 152/230/44
f 138/206/20 79/136/20 151/225/20 148/226/20
f 144/216/44 86/144/44 147/221/44 153/229/44
f 154/232/19 155/233/19 156/234/19 157/235/19
f 158/236/19 79/136/19 117/179/19 159/237/19
f 58/114/24 57/113/24 91/149/24 90/148/24
f 78/135/24 160/238/24 89/147/24 76/133/24
f 124/189/43 121/184/43 161/239/43 162/240/43
f 163/241/30 157/235/30 156/234/30 164/242/30
f 165/243/30 159/237/30 117/179/30 116/178/30
f 116/178/49 124/189/49 162/240/49 165/243/49
f 130/196/40 113/173/40 141/209/40 166/244/40
f 167/245/19 134/200/19 133/199/19 168/246/19
f 169/247/19 161/239/19 121/184/19 122/186/19
f 110/170/50 125/191/50 123/187/50 107/167/50
f 168/246/50 127/193/50 128/194/50 167/245/50
f 122/186/50 130/196/50 166/244/50 169/247/50
f 119/182/31 118/181/31 126/192/31 170/248/31
f 100/160/49 131/197/49 129/195/49 97/157/49
f 164/242/49 132/198/49 135/201/49 163/241/49
f 72/128/19 171/249/19 99/159/19 98/158/19
f 74/131/22 172/250/22 173/251/22 69/125/22
f 50/106/23 49/105/23 155/233/23 154/232/23
f 71/127/23 174/252/23 171/249/23 72/128/23
f 80/137/28 175/253/28 172/250/28 74/131/28
f 54/110/25 137/205/25 176/254/25 84/142/25
f 62/118/21 61/117/21 96/154/21 95/153/21
f 65/121/21 177/255/21 94/152/21 66/122/21
f 177/255/17 65/121/17 83/140/17 88/146/17
f 136/204/21 53/109/21 69/125/21 173/251/21
f 160/238/19 78/135/19 119/182/19 170/248/19
f 178/256/24 85/143/24 84/142/24 176/254/24
f 174/252/28 71/127/28 92/150/28 93/151/28
f 175/253/23 80/137/23 79/136/23 158/236/23
f 154/232/19 157/235/19 99/159/19 171/249/19
f 158/236/19 159/237/19 156/234/19 155/233/19
f 57/113/19 60/116/19 140/208/19 178/256/19
f 160/238/19 170/248/19 59/115/19 58/114/19
f 52/108/22 96/154/22 173/251/22 172/250/22
f 93/151/22 94/152/22 95/153/29 51/107/29
f 49/105/16 52/108/16 172/250/28 175/253/28
f 174/252/28 93/151/28 51/107/16 50/106/16
f 64/120/26 91/149/26 176/254/25 137/205/25
f 88/146/25 89/147/25 90/148/27 63/119/27
f 61/117/17 64/120/17 137/205/17 136/204/17
f 177/255/17 88/146/17 63/119/17 62/118/17
f 62/118/21 95/153/21 94/152/21 177/255/21
f 136/204/21 173/251/21 96/154/21 61/117/21
f 58/114/24 90/148/24 89/147/24 160/238/24
f 178/256/24 176/254/24 91/149/24 57/113/24
f 50/106/23 154/232/23 171/249/23 174/252/23
f 175/253/23 158/236/23 155/233/23 49/105/23
f 85/143/19 178/256/19 140/208/19 114/175/19
f 157/235/19 59/115/19 170/248/19 99/159/19
f 159/237/19 140/208/19 60/116/19 156/234/19
f 164/257/51 156/258/52 60/259/52 106/260/51
f 132/261/20 164/257/51 106/260/51 127/262/20
f 133/263/20 132/261/20 127/262/20 168/264/20
f 100/265/51 99/266/53 170/267/53 126/268/54
f 131/269/20 100/265/51 126/268/54 125/270/20
f 109/271/20 131/269/20 125/270/20 110/272/20
f 105/273/55 59/274/56 157/275/56 163/276/57
f 128/277/44 105/273/55 163/276/57 135/278/44
f 167/279/44 128/277/44 135/278/44 134/280/44
f 141/281/57 140/282/58 159/283/58 165/284/57
f 166/285/44 141/281/57 165/284/57 162/286/44
f 169/287/44 166/285/44 162/286/44 161/288/44
