# Blender v2.79 (sub 0) OBJ File: ''
# www.blender.org
mtllib door.mtl
o Cube.093_Cube.121_basic_1
v -0.009608 0.146993 0.016034
v -0.009608 0.146993 0.220012
v -0.002173 0.149922 0.220012
v -0.002173 0.149922 0.016034
v -0.002173 0.139922 0.006034
v -0.009608 0.139922 0.008963
v -0.008311 0.145695 0.010261
v -0.002173 0.146993 0.008963
v -0.012537 0.139922 0.016034
v -0.002173 0.010002 0.006034
v -0.002173 0.002931 0.008963
v -0.008311 0.004228 0.010261
v -0.009608 0.010002 0.008963
v -0.002173 0.000002 0.016034
v -0.009608 0.002931 0.016034
v -0.012537 0.010002 0.016034
v -0.012537 0.010002 0.220012
v -0.012537 0.139922 0.220012
v -0.009608 0.002931 0.220012
v -0.002173 0.000002 0.220012
v -0.008215 0.145600 0.016380
v -0.002173 0.148083 0.016348
v -0.002173 0.148074 0.220012
v -0.008194 0.145579 0.220012
v -0.002173 0.139609 0.007874
v -0.002173 0.145671 0.010286
v -0.007156 0.144541 0.011416
v -0.008215 0.139577 0.010357
v -0.010603 0.139563 0.016393
v -0.002173 0.010315 0.007874
v -0.008215 0.010347 0.010357
v -0.007156 0.005383 0.011416
v -0.002173 0.004253 0.010286
v -0.002173 0.001841 0.016348
v -0.008215 0.004324 0.016380
v -0.010603 0.010361 0.016393
v -0.010576 0.139532 0.220012
v -0.010576 0.010392 0.220012
v -0.008194 0.004345 0.220012
v -0.002173 0.001850 0.220012
vt 0.383732 0.000000
vt 0.551465 0.000000
vt 0.551465 0.023833
vt 0.383732 0.023833
vt 0.140004 0.726167
vt 0.140004 0.750000
vt 0.131341 0.750000
vt 0.125000 0.726167
vt 0.383732 0.984996
vt 0.383732 1.000000
vt 0.378690 1.000000
vt 0.375000 0.984996
vt 0.375000 0.023833
vt 0.375000 0.010073
vt 0.359996 0.726167
vt 0.375000 0.726167
vt 0.376230 0.748756
vt 0.359996 0.750000
vt 0.383732 0.726167
vt 0.383732 0.750000
vt 0.383732 0.765004
vt 0.375000 0.765004
vt 0.551465 0.765004
vt 0.551465 0.984996
vt 0.551465 0.750000
vt 0.551465 0.726167
vt 0.551465 1.000000
vt 0.383732 0.000000
vt 0.383732 0.023833
vt 0.551465 0.023833
vt 0.551465 0.000000
vt 0.140004 0.726167
vt 0.125000 0.726167
vt 0.131341 0.750000
vt 0.140004 0.750000
vt 0.383732 0.984996
vt 0.375000 0.984996
vt 0.378690 1.000000
vt 0.383732 1.000000
vt 0.375000 0.010073
vt 0.375000 0.023833
vt 0.359996 0.726167
vt 0.359996 0.750000
vt 0.376230 0.748756
vt 0.375000 0.726167
vt 0.383732 0.726167
vt 0.383732 0.750000
vt 0.383732 0.765004
vt 0.375000 0.765004
vt 0.551465 0.984996
vt 0.551465 0.765004
vt 0.551465 0.750000
vt 0.551465 0.726167
vt 0.551465 1.000000
vt 0.000000 0.000000
vt 0.000000 0.000000
vt 0.000000 0.000000
vt 0.000000 0.000000
vt 0.000000 0.000000
vt 0.000000 0.000000
vt 0.000000 0.000000
vt 0.000000 0.000000
vt 0.000000 0.000000
vt 0.000000 0.000000
vn -0.3665 0.9304 -0.0000
vn -0.3094 0.3253 -0.8936
vn -0.8881 0.3250 -0.3251
vn -0.3094 0.8936 -0.3253
vn -0.3094 -0.3253 -0.8936
vn -0.3093 -0.8936 -0.3253
vn -0.8881 -0.3250 -0.3250
vn -1.0000 0.0000 -0.0000
vn -0.9239 -0.3827 -0.0000
vn -0.3665 0.0000 -0.9304
vn -0.9239 0.0000 -0.3827
vn -0.3665 -0.9304 -0.0000
vn -0.9239 0.3827 -0.0000
vn 0.3815 -0.9244 -0.0001
vn 0.3254 -0.3122 0.8925
vn 0.8981 -0.3110 0.3110
vn 0.3254 -0.8925 0.3122
vn 0.3254 0.3122 0.8925
vn 0.3254 0.8925 0.3122
vn 0.8981 0.3110 0.3110
vn 1.0000 0.0000 -0.0001
vn 0.9302 0.3672 -0.0002
vn 0.3801 0.0000 0.9249
vn 0.9299 0.0000 0.3679
vn 0.3815 0.9244 -0.0001
vn 0.9302 -0.3672 -0.0002
vn 1.0000 0.0000 0.0000
vn 0.0000 0.0000 1.0000
usemtl basic_1
s 1
f 1/1/1 2/2/1 3/3/1 4/4/1
f 5/5/2 6/6/2 7/7/2 8/8/2
f 9/9/3 1/10/3 7/11/3 6/12/3
f 4/4/4 8/13/4 7/14/4 1/1/4
f 10/15/5 11/16/5 12/17/5 13/18/5
f 14/19/6 15/20/6 12/17/6 11/16/6
f 16/21/7 13/22/7 12/17/7 15/20/7
f 16/21/8 17/23/8 18/24/8 9/9/8
f 17/23/9 16/21/9 15/20/9 19/25/9
f 5/5/10 10/15/10 13/18/10 6/6/10
f 6/12/11 13/22/11 16/21/11 9/9/11
f 19/25/12 15/20/12 14/19/12 20/26/12
f 9/9/13 18/24/13 2/27/13 1/10/13
f 21/28/14 22/29/14 23/30/14 24/31/14
f 25/32/15 26/33/15 27/34/15 28/35/15
f 29/36/16 28/37/16 27/38/16 21/39/16
f 22/29/17 21/28/17 27/40/17 26/41/17
f 30/42/18 31/43/18 32/44/18 33/45/18
f 34/46/19 33/45/19 32/44/19 35/47/19
f 36/48/20 35/47/20 32/44/20 31/49/20
f 36/48/21 29/36/21 37/50/21 38/51/21
f 38/51/22 39/52/22 35/47/22 36/48/22
f 25/32/23 28/35/23 31/43/23 30/42/23
f 28/37/24 29/36/24 36/48/24 31/49/24
f 39/52/25 40/53/25 34/46/25 35/47/25
f 29/36/26 21/39/26 24/54/26 37/50/26
f 5/5/27 8/8/27 26/33/27 25/32/27
f 8/13/27 4/4/27 22/29/27 26/41/27
f 11/16/27 10/15/27 30/42/27 33/45/27
f 14/19/27 11/16/27 33/45/27 34/46/27
f 10/15/27 5/5/27 25/32/27 30/42/27
f 4/4/27 3/3/27 23/30/27 22/29/27
f 20/26/27 14/19/27 34/46/27 40/53/27
f 20/26/28 40/53/28 39/52/28 19/25/28
f 17/55/28 19/56/28 39/57/28 38/58/28
f 18/59/28 17/55/28 38/58/28 37/60/28
f 2/61/28 18/59/28 37/60/28 24/62/28
f 3/63/28 2/61/28 24/62/28 23/64/28
o Cube.093_Cube.121_basic_2
v -0.014782 0.127501 0.210966
v -0.014782 0.127501 0.206475
v -0.010291 0.127501 0.206475
v -0.010291 0.127501 0.210966
v -0.010291 0.131992 0.206475
v -0.010291 0.131992 0.210966
v -0.014782 0.131992 0.206475
v -0.014782 0.131992 0.210966
v -0.017751 0.127501 0.209336
v -0.017751 0.127501 0.206475
v -0.017751 0.131992 0.209336
v -0.017751 0.131992 0.206475
v -0.014782 0.131992 0.145482
v -0.014782 0.131992 0.149973
v -0.010291 0.131992 0.149973
v -0.010291 0.131992 0.145482
v -0.010291 0.127501 0.149973
v -0.010291 0.127501 0.145482
v -0.014782 0.127501 0.149973
v -0.014782 0.127501 0.145482
v -0.017751 0.131992 0.147112
v -0.017751 0.131992 0.149973
v -0.017751 0.127501 0.147112
v -0.017751 0.127501 0.149973
vt 0.375000 0.000000
vt 0.625000 0.000000
vt 0.625000 0.250000
vt 0.375000 0.250000
vt 0.625000 0.500000
vt 0.375000 0.500000
vt 0.625000 0.750000
vt 0.375000 0.750000
vt 0.375000 0.000000
vt 0.625000 0.000000
vt 0.125000 0.500000
vt 0.125000 0.750000
vt 0.875000 0.500000
vt 0.875000 0.750000
vt 0.375000 0.750000
vt 0.625000 0.750000
vt 0.625000 1.000000
vt 0.375000 1.000000
vt 0.125000 0.750000
vt 0.375000 0.000000
vt 0.625000 0.000000
vt 0.625000 0.250000
vt 0.375000 0.250000
vt 0.625000 0.500000
vt 0.375000 0.500000
vt 0.625000 0.750000
vt 0.375000 0.750000
vt 0.375000 0.000000
vt 0.625000 0.000000
vt 0.125000 0.500000
vt 0.125000 0.750000
vt 0.875000 0.500000
vt 0.875000 0.750000
vt 0.375000 0.750000
vt 0.625000 0.750000
vt 0.625000 1.000000
vt 0.375000 1.000000
vt 0.125000 0.750000
vn 0.0000 -1.0000 0.0000
vn 1.0000 0.0000 0.0000
vn 0.0000 1.0000 0.0000
vn 0.0000 0.0000 1.0000
vn 0.0000 0.0000 -1.0000
vn -1.0000 0.0000 0.0000
vn -0.4813 0.0000 0.8766
vn -0.4812 0.0000 -0.8766
usemtl basic_2
s 1
f 41/65/29 42/66/29 43/67/29 44/68/29
f 44/68/30 43/67/30 45/69/30 46/70/30
f 46/70/31 45/69/31 47/71/31 48/72/31
f 42/66/29 41/65/29 49/73/29 50/74/29
f 44/75/32 46/70/32 48/72/32 41/76/32
f 45/69/33 43/77/33 42/78/33 47/71/33
f 51/79/34 52/80/34 50/81/34 49/82/34
f 41/76/35 48/72/35 51/79/35 49/83/35
f 48/72/31 47/71/31 52/80/31 51/79/31
f 53/84/31 54/85/31 55/86/31 56/87/31
f 56/87/30 55/86/30 57/88/30 58/89/30
f 58/89/29 57/88/29 59/90/29 60/91/29
f 54/85/31 53/84/31 61/92/31 62/93/31
f 56/94/33 58/89/33 60/91/33 53/95/33
f 57/88/32 55/96/32 54/97/32 59/90/32
f 63/98/34 64/99/34 62/100/34 61/101/34
f 53/95/36 60/91/36 63/98/36 61/102/36
f 60/91/29 59/90/29 64/99/29 63/98/29
f 47/71/30 42/78/30 59/90/30 54/97/30
f 42/78/29 50/74/29 64/99/29 59/90/29
f 50/74/34 52/80/34 62/100/34 64/99/34
f 52/80/31 47/71/31 54/85/31 62/100/31
