# Blender v2.79 (sub 0) OBJ File: ''
# www.blender.org
mtllib table.mtl
o Cube.150_Cube.178_basic_2
v -0.064324 -0.070047 0.000070
v -0.064324 -0.077649 0.000070
v -0.071926 -0.077649 0.000070
v -0.071926 -0.070047 0.000070
v -0.073170 -0.078894 0.061340
v -0.073170 -0.068803 0.061340
v -0.063079 -0.078894 0.061340
v -0.063079 -0.068803 0.061340
v -0.064324 0.078878 0.000070
v -0.064324 0.071276 0.000070
v -0.071926 0.071276 0.000070
v -0.071926 0.078878 0.000070
v -0.073170 0.070032 0.061340
v -0.073170 0.080122 0.061340
v -0.063079 0.070032 0.061340
v -0.063079 0.080122 0.061340
v 0.084824 0.078878 0.000070
v 0.084824 0.071276 0.000070
v 0.077222 0.071276 0.000070
v 0.077222 0.078878 0.000070
v 0.075977 0.070032 0.061340
v 0.075977 0.080122 0.061340
v 0.086068 0.070032 0.061340
v 0.086068 0.080122 0.061340
v -0.073170 0.080122 0.107194
v -0.073170 0.070032 0.107194
v 0.084824 -0.070047 0.000070
v 0.084824 -0.077649 0.000070
v 0.077222 -0.077649 0.000070
v 0.077222 -0.070047 0.000070
v 0.075977 -0.078894 0.061340
v 0.075977 -0.068803 0.061340
v 0.086068 -0.078894 0.061340
v 0.086068 -0.068803 0.061340
v -0.063079 0.070032 0.107194
v -0.063079 0.080122 0.107194
v 0.086068 0.080122 0.107194
v 0.075977 0.080122 0.107194
v 0.075977 0.070032 0.107194
v 0.086068 0.070032 0.107194
v 0.086068 -0.078894 0.107194
v 0.086068 -0.068803 0.107194
v 0.075977 -0.078894 0.107194
v 0.086068 -0.078894 0.122610
v 0.075977 -0.078894 0.122610
v -0.063079 -0.068803 0.107194
v -0.073170 -0.068803 0.107194
v -0.073170 -0.078894 0.107194
v -0.063079 -0.078894 0.107194
v -0.073170 0.080122 0.122610
v -0.063079 0.080122 0.122610
v -0.073170 0.070032 0.122610
v 0.086068 0.080122 0.122610
v 0.086068 0.070032 0.122610
v 0.075977 0.080122 0.122610
v 0.075977 -0.068803 0.107194
v 0.086068 -0.068803 0.122610
v -0.063079 -0.078894 0.122610
v -0.073170 -0.078894 0.122610
v -0.073170 -0.068803 0.122610
v -0.063079 -0.068803 0.122610
v -0.063079 0.070032 0.122610
v 0.075977 0.070032 0.122610
v 0.075977 -0.068803 0.122610
vt 0.125000 0.500000
vt 0.375000 0.500000
vt 0.375000 0.750000
vt 0.125000 0.750000
vt 0.500000 0.750000
vt 0.500000 1.000000
vt 0.375000 1.000000
vt 0.500000 0.500000
vt 0.375000 0.250000
vt 0.500000 0.250000
vt 0.375000 0.000000
vt 0.500000 0.000000
vt 0.125000 0.500000
vt 0.375000 0.500000
vt 0.375000 0.750000
vt 0.125000 0.750000
vt 0.500000 0.750000
vt 0.500000 1.000000
vt 0.375000 1.000000
vt 0.500000 0.500000
vt 0.375000 0.250000
vt 0.500000 0.250000
vt 0.375000 0.000000
vt 0.500000 0.000000
vt 0.125000 0.500000
vt 0.375000 0.500000
vt 0.375000 0.750000
vt 0.125000 0.750000
vt 0.500000 0.750000
vt 0.500000 1.000000
vt 0.375000 1.000000
vt 0.500000 0.500000
vt 0.375000 0.250000
vt 0.500000 0.250000
vt 0.375000 0.000000
vt 0.500000 0.000000
vt 0.687500 0.875000
vt 0.562500 0.750000
vt 0.125000 0.500000
vt 0.375000 0.500000
vt 0.375000 0.750000
vt 0.125000 0.750000
vt 0.500000 0.750000
vt 0.500000 1.000000
vt 0.375000 1.000000
vt 0.500000 0.500000
vt 0.375000 0.250000
vt 0.500000 0.250000
vt 0.375000 0.000000
vt 0.500000 0.000000
vt 0.000000 0.000000
vt 0.000000 0.000000
vt 0.000000 0.000000
vt 0.000000 0.000000
vt 0.000000 0.000000
vt 0.000000 0.000000
vt 0.000000 0.000000
vt 0.000000 0.000000
vt 0.687500 0.375000
vt 0.687500 0.375000
vt 0.000000 0.000000
vt 0.000000 0.000000
vt 0.000000 0.000000
vt 0.000000 0.000000
vt 0.000000 0.000000
vt 0.000000 0.000000
vt 0.000000 0.000000
vt 0.000000 0.000000
vt 0.562500 0.500000
vt 0.687500 0.375000
vt 0.000000 0.000000
vt 0.000000 0.000000
vt 0.000000 0.000000
vt 0.000000 0.000000
vt 0.687500 0.375000
vt 0.687500 0.375000
vt 0.000000 0.000000
vt 0.000000 0.000000
vt 0.000000 0.000000
vt 0.000000 0.000000
vt 0.000000 0.000000
vt 0.000000 0.000000
vt 0.000000 0.000000
vt 0.000000 0.000000
vt 0.000000 0.000000
vt 0.000000 0.000000
vt 0.875000 0.750000
vt 0.625000 0.750000
vt 0.000000 0.000000
vt 0.000000 0.000000
vt 0.875000 0.500000
vt 0.875000 0.750000
vt 0.000000 0.000000
vt 0.000000 0.000000
vt 0.000000 0.000000
vt 0.000000 0.000000
vt 0.000000 0.000000
vt 0.000000 0.000000
vt 0.625000 0.500000
vt 0.875000 0.500000
vt 0.000000 0.000000
vt 0.000000 0.000000
vt 0.000000 0.000000
vt 0.000000 0.000000
vt 0.000000 0.000000
vt 0.000000 0.000000
vt 0.000000 0.000000
vt 0.000000 0.000000
vn 0.0000 0.0000 -1.0000
vn -0.9998 0.0000 -0.0203
vn 0.0000 -0.9998 -0.0203
vn 0.9998 0.0000 -0.0203
vn 0.0000 0.9998 -0.0203
vn -1.0000 0.0000 -0.0000
vn 0.0000 -1.0000 0.0000
vn 1.0000 0.0000 0.0000
vn 0.0000 1.0000 0.0000
usemtl basic_2
s 1
f 1/1/1 2/2/1 3/3/1 4/4/1
f 3/3/2 5/5/2 6/6/2 4/7/2
f 2/2/3 7/8/3 5/5/3 3/3/3
f 1/9/4 8/10/4 7/8/4 2/2/4
f 4/11/5 6/12/5 8/10/5 1/9/5
f 9/13/1 10/14/1 11/15/1 12/16/1
f 11/15/2 13/17/2 14/18/2 12/19/2
f 10/14/3 15/20/3 13/17/3 11/15/3
f 9/21/4 16/22/4 15/20/4 10/14/4
f 12/23/5 14/24/5 16/22/5 9/21/5
f 17/25/1 18/26/1 19/27/1 20/28/1
f 19/27/2 21/29/2 22/30/2 20/31/2
f 18/26/3 23/32/3 21/29/3 19/27/3
f 17/33/4 24/34/4 23/32/4 18/26/4
f 20/35/5 22/36/5 24/34/5 17/33/5
f 25/37/6 14/18/6 13/17/6 26/38/6
f 27/39/1 28/40/1 29/41/1 30/42/1
f 29/41/2 31/43/2 32/44/2 30/45/2
f 28/40/3 33/46/3 31/43/3 29/41/3
f 27/47/4 34/48/4 33/46/4 28/40/4
f 30/49/5 32/50/5 34/48/5 27/47/5
f 35/51/7 26/52/7 13/53/7 15/54/7
f 36/55/8 35/51/8 15/54/8 16/56/8
f 25/57/9 36/55/9 16/56/9 14/58/9
f 37/59/9 24/34/9 22/36/9 38/60/9
f 39/61/6 38/62/6 22/63/6 21/64/6
f 40/65/7 39/61/7 21/64/7 23/66/7
f 37/67/8 40/65/8 23/66/8 24/68/8
f 41/69/8 33/46/8 34/48/8 42/70/8
f 43/71/7 41/72/7 44/73/7 45/74/7
f 46/75/9 8/10/9 6/12/9 47/76/9
f 48/77/6 47/78/6 6/79/6 5/80/6
f 49/81/7 48/77/7 5/80/7 7/82/7
f 46/83/8 49/81/8 7/82/8 8/84/8
f 50/85/9 51/86/9 36/55/9 25/57/9
f 50/87/6 25/37/6 26/38/6 52/88/6
f 53/89/8 54/90/8 40/65/8 37/67/8
f 26/52/1 35/51/1 46/83/1 47/78/1
f 53/91/9 37/59/9 38/60/9 55/92/9
f 34/93/9 32/94/9 56/95/9 42/96/9
f 32/94/6 31/97/6 43/71/6 56/95/6
f 31/97/7 33/98/7 41/72/7 43/71/7
f 44/99/8 41/69/8 42/70/8 57/100/8
f 55/92/9 38/60/9 36/55/9 51/86/9
f 58/101/7 59/102/7 48/77/7 49/81/7
f 59/102/6 60/103/6 47/78/6 48/77/6
f 61/104/8 46/83/8 35/51/8 62/105/8
f 38/62/1 39/61/1 35/51/1 36/55/1
f 62/105/7 35/51/7 39/61/7 63/106/7
f 49/81/7 43/71/7 45/74/7 58/101/7
f 56/95/1 43/71/1 49/81/1 46/83/1
f 64/107/9 56/95/9 46/83/9 61/104/9
f 52/108/6 26/52/6 47/78/6 60/103/6
f 40/65/8 54/90/8 57/100/8 42/70/8
f 39/61/1 40/65/1 42/96/1 56/95/1
f 63/106/6 39/61/6 56/95/6 64/107/6
o Cube.150_Cube.178_basic_1
v -0.082092 0.092306 0.120172
v -0.082092 0.092306 0.131185
v 0.094383 0.092306 0.131185
v 0.094383 0.092306 0.120172
v 0.094383 -0.091879 0.131185
v 0.094383 -0.091879 0.120172
v -0.082092 -0.091879 0.131185
v -0.082092 -0.091879 0.120172
vt 0.375000 0.000000
vt 0.625000 0.000000
vt 0.625000 0.250000
vt 0.375000 0.250000
vt 0.625000 0.500000
vt 0.375000 0.500000
vt 0.625000 0.750000
vt 0.375000 0.750000
vt 0.625000 1.000000
vt 0.375000 1.000000
vt 0.125000 0.500000
vt 0.125000 0.750000
vt 0.875000 0.500000
vt 0.875000 0.750000
vn 0.0000 1.0000 0.0000
vn 1.0000 0.0000 0.0000
vn 0.0000 -1.0000 0.0000
vn -1.0000 0.0000 0.0000
vn 0.0000 0.0000 -1.0000
vn -0.0000 0.0000 1.0000
usemtl basic_1
s 1
f 65/109/10 66/110/10 67/111/10 68/112/10
f 68/112/11 67/111/11 69/113/11 70/114/11
f 70/114/12 69/113/12 71/115/12 72/116/12
f 72/116/13 71/115/13 66/117/13 65/118/13
f 68/119/14 70/114/14 72/116/14 65/120/14
f 69/113/15 67/121/15 66/122/15 71/115/15
